<?xml version="1.0" encoding="utf-8"?>
<svg version="1.1" id="nvidia" xmlns="http://www.w3.org/2000/svg" xmlns:xlink="http://www.w3.org/1999/xlink" x="0px" y="0px"
	 viewBox="0 0 170.1 170.1" style="enable-background:new 0 0 170.1 170.1;" xml:space="preserve">
<style type="text/css">
	.st0{fill:#FFFFFF;}
	.st1{fill:none;stroke:#1B2743;stroke-linecap:round;stroke-linejoin:round;stroke-miterlimit:10;}
	.st2{fill:#FFFFFF;stroke:#000000;stroke-width:8;stroke-linecap:round;stroke-linejoin:round;stroke-miterlimit:10;}
</style>
<path class="st0" d="M151.7,54L102,39.3c-0.3-0.1-0.7-0.1-1-0.1l-75,10.4c-1.2,0.2-2.1,1.2-2.1,2.4v35.1c-0.6-0.2-1.3-0.1-1.8,0.2
	c-0.8,0.4-1.2,1.3-1.2,2.1v16.6c0,0.8,0.4,1.6,1.1,2l44.9,30.7c0.4,0.3,0.9,0.4,1.4,0.4c0.2,0,0.3,0,0.5-0.1l8.6-1.8
	c1.1-0.2,1.9-1.2,1.9-2.4v-12.2l43.4-9.8l19,7.7c0.5,0.2,1,0.2,1.4,0.1l8.6-1.8c1.1-0.2,1.9-1.2,1.9-2.4V56.4
	C153.5,55.3,152.8,54.3,151.7,54z"/>
<g>
	<polygon class="st1" points="68.1,136.3 68.1,69.3 151,55.8 151,116 142.4,117.8 142.4,105.5 76.7,120.3 76.7,134.4 	"/>
	<polyline class="st1" points="68.1,69.3 26.3,51.5 101.3,41 151,55.8 	"/>
	<polyline class="st1" points="68.1,117.6 26.3,90.8 26.3,51.5 	"/>
	<polyline class="st1" points="26.3,90.8 23.2,89 23.2,105.5 68.1,136.3 	"/>
	<line class="st1" x1="65.6" y1="100.6" x2="28.1" y2="80.3"/>
	<line class="st1" x1="65.6" y1="71.7" x2="65.6" y2="96.9"/>
	<line class="st1" x1="54.5" y1="51.5" x2="80.4" y2="63.1"/>
	<line class="st1" x1="142.4" y1="117.8" x2="124" y2="109.8"/>
	<line class="st1" x1="69.9" y1="48.4" x2="94.5" y2="59.4"/>
	<line class="st1" x1="84" y1="45.9" x2="109.2" y2="57"/>
	<line class="st1" x1="29.3" y1="55.1" x2="29.3" y2="79.1"/>
	<polyline class="st1" points="58.2,112.3 58.2,117.2 62.5,119.7 62.5,114.5 	"/>
</g>
<path class="st2" d="M142.4,116.6"/>
</svg>
