<?xml version="1.0" encoding="utf-8"?>
<!-- Generator: Adobe Illustrator 22.0.1, SVG Export Plug-In . SVG Version: 6.00 Build 0)  -->
<svg version="1.1" id="commsignia" xmlns="http://www.w3.org/2000/svg" xmlns:xlink="http://www.w3.org/1999/xlink" x="0px" y="0px"
	 viewBox="0 0 170.1 170.1" style="enable-background:new 0 0 170.1 170.1;" xml:space="preserve">
<style type="text/css">
	.st0{fill:#FFFFFF;stroke:#FFFFFF;stroke-width:7;stroke-linecap:round;stroke-linejoin:round;stroke-miterlimit:10;}
	.st1{fill:none;stroke:#1B2743;stroke-linecap:round;stroke-linejoin:round;stroke-miterlimit:10;}
</style>
<polygon class="st0" points="116.1,44.3 7.1,65.3 7.1,86.4 45.5,121.7 164,93.8 164,73.2 "/>
<g>
	<polygon class="st1" points="45.3,121.7 45.3,100.1 163.7,73.2 163.7,93.8 	"/>
	<polyline class="st1" points="45.3,100.1 6.9,65.3 115.8,44.3 163.7,73.2 	"/>
	<polyline class="st1" points="45.3,121.7 6.9,86.4 6.9,65.3 	"/>
	<polygon class="st1" points="57.4,105.9 57.4,111.1 80,105.9 80,100.6 	"/>
	<polygon class="st1" points="83.7,100.1 83.7,104.8 96.9,101.7 96.9,96.9 	"/>
	<circle class="st1" cx="106.6" cy="101.1" r="2.6"/>
	<circle class="st1" cx="158.3" cy="88.6" r="2.6"/>
	<circle class="st1" cx="115.2" cy="99" r="2.6"/>
	<circle class="st1" cx="123.8" cy="96.9" r="2.6"/>
	<circle class="st1" cx="149.6" cy="90.7" r="2.6"/>
	<circle class="st1" cx="141" cy="92.7" r="2.6"/>
	<circle class="st1" cx="132.4" cy="94.8" r="2.6"/>
</g>
</svg>
