<?xml version="1.0" encoding="utf-8"?>
<svg version="1.1" id="crio" xmlns="http://www.w3.org/2000/svg" xmlns:xlink="http://www.w3.org/1999/xlink" x="0px" y="0px"
	 viewBox="0 0 170.1 170.1" style="enable-background:new 0 0 170.1 170.1;" xml:space="preserve">
<style type="text/css">
	.st0{fill:#FFFFFF;}
	.st1{fill:none;stroke:#1B2743;stroke-linecap:round;stroke-linejoin:round;stroke-miterlimit:10;}
</style>
<path class="st0" d="M153.8,57.3c-0.6-0.5-1.4-0.8-2.1-0.9c-0.2-0.1-0.3-0.2-0.5-0.2l-33.3-9.1c-0.2-0.1-0.4-0.1-0.7-0.1l-94,10.1
	c-0.7,0.1-1.4,0.6-1.5,1.3c0,0.1,0,0.3-0.1,0.4l-5.6,1.3c-1.2,0.2-4,1.3-4,4.3c0,3,0.5,48.6,0.5,50.5c0,0.1,0,0.3,0.1,0.4
	c0.3,1.2,1.5,3.3,4.2,3.4l1.4,0.1c0.7,0.6,1.7,0.9,2.7,0.9c0.1,0,0.3,0,0.4,0l4.9-1.1l0.1,0.3c0.3,1.2,1.6,3.4,4.2,3.4h1.3
	c0.8,0.7,1.7,1,2.8,1c0,0,0.1,0,0.1,0l5-0.4l0.2,1.3v0.4c0,0.1,0,0.1,0,0.2c0,0.2,0.3,2.1,2.1,3.5c1.2,0.9,2.6,1.3,4.4,1.3
	c0.7,0,1.4-0.1,2.1-0.2c0.1,0,0.2,0,0.3-0.1c0.5,0.2,1.1,0.3,1.7,0.1l49.6-8.3c0.9-0.1,1.6-0.6,2.1-1.2c0.7,0.4,1.6,0.6,2.4,0.4
	l9.7-1.6c0.9-0.1,1.6-0.6,2.1-1.2c0.7,0.4,1.6,0.6,2.4,0.4l9.1-1.5c0.9-0.1,1.6-0.6,2.1-1.2c0.7,0.4,1.6,0.6,2.4,0.4l8.1-1.4
	c0.9-0.1,1.6-0.6,2.1-1.2c0.7,0.4,1.6,0.6,2.4,0.4l7.1-1.2c1.7-0.3,2.9-1.7,2.9-3.5V60C155,59,154.6,58,153.8,57.3z"/>
<g>
	<g>
		<path class="st1" d="M99.5,64L50,69.8c-0.9,0.1-1.5,0.8-1.5,1.7v54.2c0,1.1,1,1.9,2,1.7l49.6-8.3c0.8-0.1,1.5-0.9,1.5-1.7V65.8
			C101.5,64.7,100.6,63.9,99.5,64z"/>
		<path class="st1" d="M113.7,62.4l-9.7,1.1c-0.9,0.1-1.5,0.8-1.5,1.7v51.4c0,1.1,1,1.9,2,1.7l9.7-1.6c0.8-0.1,1.5-0.9,1.5-1.7V64.1
			C115.6,63.1,114.7,62.3,113.7,62.4z"/>
		<path class="st1" d="M151.5,58l-7.1,0.8c-0.9,0.1-1.5,0.8-1.5,1.7v49.3c0,1.1,1,1.9,2,1.7l7.1-1.2c0.8-0.1,1.5-0.9,1.5-1.7V59.7
			C153.5,58.7,152.6,57.9,151.5,58z"/>
		<path class="st1" d="M127.3,60.8l-9.1,1.1c-0.9,0.1-1.5,0.8-1.5,1.7v50.7c0,1.1,1,1.9,2,1.7l9.1-1.5c0.8-0.1,1.5-0.9,1.5-1.7V62.5
			C129.2,61.5,128.3,60.7,127.3,60.8z"/>
		<path class="st1" d="M139.9,59.3l-8.1,0.9c-0.9,0.1-1.5,0.8-1.5,1.7v50c0,1.1,1,1.9,2,1.7l8.1-1.4c0.8-0.1,1.5-0.9,1.5-1.7V61.1
			C141.9,60,141,59.2,139.9,59.3z"/>
	</g>
	<polygon class="st1" points="78.2,73.3 78.2,95.1 85.8,94 86.3,72.3 	"/>
	<polygon class="st1" points="80.7,76.4 80.7,83.4 84.3,82.9 84.3,81.4 85.3,80.9 85.3,76.9 84.3,76.4 83.8,74.8 80.7,75.4 	"/>
	<polygon class="st1" points="80.7,86 80.7,93 84.3,92.5 84.3,91 85.3,90.5 85.3,86.5 84.3,86 83.8,84.4 80.7,85 	"/>
	<polyline class="st1" points="59,68.3 23.7,58.7 117.6,48.6 151,57.7 	"/>
	<path class="st1" d="M25.2,59.7l-8.6,2c0,0,0,0,0,0c-0.2,0-2.5,0.5-2.5,2.5c0,3,0.5,50.5,0.5,50.5s0.5,2,2.5,2l1.9,0.1"/>
	<path class="st1" d="M29.2,60.7l-8.6,2c0,0,0,0,0,0c-0.2,0-2.5,0.5-2.5,2.5c0,3,0.5,50.5,0.5,50.5s0.5,2,2.5,2l6.6-1.5"/>
	<path class="st1" d="M38.8,63.2l-8.6,2c0,0,0,0,0,0c-0.2,0-2.5,0.5-2.5,2.5c0,3,0.5,50.5,0.5,50.5s0.5,2,2.5,2h1.5"/>
	<path class="st1" d="M42.9,64.2l-8.6,2c0,0,0,0,0,0c-0.2,0-2.5,0.5-2.5,2.5c0,3,0.5,50.5,0.5,50.5s0.5,2,2.5,2l6.6-0.5"/>
	<path class="st1" d="M52.5,67.3l-8.6,2c0,0,0,0,0,0c-0.2,0-2.5,0.5-2.5,2.5c0,3,0.5,52.5,0.5,52.5s0.5,4,6.6,3"/>
	<polygon class="st1" points="85.8,117.3 85.8,95.6 78.2,96.6 77.7,118.3 	"/>
	<polygon class="st1" points="83.3,114.2 83.3,107.2 79.7,107.7 79.7,109.2 78.7,109.7 78.7,113.7 79.7,114.2 80.2,115.8 
		83.3,115.3 	"/>
	<polygon class="st1" points="83.3,104.7 83.3,97.6 79.7,98.1 79.7,99.6 78.7,100.1 78.7,104.1 79.7,104.7 80.2,106.2 83.3,105.7 	
		"/>
	<g>
		<path class="st1" d="M97.5,65.5l-40,4.9c-0.9,0.1-1.5,0.8-1.5,1.6l0.5,50.1c0,1,1,1.8,2,1.6l39.5-6.4c0.8-0.1,1.5-0.8,1.5-1.6
			V67.2C99.4,66.2,98.5,65.4,97.5,65.5z"/>
	</g>
	<polygon class="st1" points="68.1,105.2 75.2,104.1 75.2,108.7 68.1,109.7 	"/>
	<polygon class="st1" points="92.4,68.8 92.4,85.5 95.4,85 95.4,68.3 	"/>
	<polygon class="st1" points="107.5,69.5 107.5,83.2 111.4,83.9 111.4,67.8 	"/>
	<path class="st1" d="M126.3,74.7c-0.8,2.4-3.6,3.5-5.5,2.5c-1.4-0.7-1.8-2.3-1.2-3.7c0.6-1.3,2.1-2.4,3.7-2.5
		C125.4,70.8,127.1,72.4,126.3,74.7z"/>
	<polygon class="st1" points="68.1,111.2 75.2,110.2 75.2,114.8 68.1,115.8 	"/>
	<polygon class="st1" points="66.6,76.6 66.6,76.6 66.6,76.6 66.6,76.6 	"/>
	<circle class="st1" cx="67.8" cy="74.8" r="0.3"/>
	<polygon class="st1" points="70.3,74.9 70.3,74.9 70.3,74.9 70.3,74.9 	"/>
	<circle class="st1" cx="69.5" cy="74.5" r="0.3"/>
	<polygon class="st1" points="74.2,73.8 74.2,73.8 74.2,73.8 74.2,73.8 	"/>
	<circle class="st1" cx="71.3" cy="74.2" r="0.3"/>
	<polygon class="st1" points="77.6,72.6 77.6,72.6 77.6,72.6 77.6,72.6 	"/>
	<circle class="st1" cx="73" cy="73.9" r="0.3"/>
	<line class="st1" x1="147.9" y1="64.7" x2="147.9" y2="105.7"/>
	<polygon class="st1" points="107.5,97.8 107.5,111.5 111.4,112.2 111.4,96.1 	"/>
	<path class="st1" d="M126.8,89.3c-0.8,2.4-3.6,3.5-5.5,2.5c-1.4-0.7-1.8-2.3-1.2-3.7c0.6-1.3,2.1-2.4,3.7-2.5
		C125.9,85.4,127.6,87,126.8,89.3z"/>
	<path class="st1" d="M126.8,105c-0.8,2.4-3.6,3.5-5.5,2.5c-1.4-0.7-1.8-2.3-1.2-3.7c0.6-1.3,2.1-2.4,3.7-2.5
		C125.9,101.1,127.6,102.7,126.8,105z"/>
	<polygon class="st1" points="136.1,92.4 136.1,92.4 136.1,92.4 136.1,92.4 	"/>
	<circle class="st1" cx="135.8" cy="94.5" r="0.3"/>
	<polygon class="st1" points="136.1,98.7 136.1,98.7 136.1,98.7 136.1,98.7 	"/>
	<circle class="st1" cx="135.8" cy="96.6" r="0.3"/>
	<circle class="st1" cx="135.8" cy="100.8" r="0.3"/>
	<circle class="st1" cx="135.8" cy="103" r="0.3"/>
	<polygon class="st1" points="136.1,79.7 136.1,79.7 136.1,79.7 136.1,79.7 	"/>
	<circle class="st1" cx="135.8" cy="81.8" r="0.3"/>
	<polygon class="st1" points="136.1,86 136.1,86 136.1,86 136.1,86 	"/>
	<circle class="st1" cx="135.8" cy="83.9" r="0.3"/>
	<circle class="st1" cx="135.8" cy="88.1" r="0.3"/>
	<circle class="st1" cx="135.8" cy="90.3" r="0.3"/>
	<polygon class="st1" points="106,37.2 106,37.2 106,37.2 106,37.2 	"/>
	<circle class="st1" cx="135.8" cy="71.2" r="0.3"/>
	<polygon class="st1" points="136.1,73.3 136.1,73.3 136.1,73.3 136.1,73.3 	"/>
	<circle class="st1" cx="135.8" cy="69.1" r="0.3"/>
	<circle class="st1" cx="135.8" cy="75.5" r="0.3"/>
	<circle class="st1" cx="135.8" cy="77.6" r="0.3"/>
</g>
</svg>
