<?xml version="1.0" encoding="utf-8"?>
<!-- Generator: Adobe Illustrator 22.0.1, SVG Export Plug-In . SVG Version: 6.00 Build 0)  -->
<svg version="1.1" xmlns="http://www.w3.org/2000/svg" xmlns:xlink="http://www.w3.org/1999/xlink" x="0px" y="0px"
	 viewBox="0 0 170.1 170.1" style="enable-background:new 0 0 170.1 170.1;" xml:space="preserve">
<style type="text/css">
	.st0{display:none;}
	.st1{display:inline;fill:#FFFFFF;}
	.st2{display:inline;fill:#A0A0A0;}
	.st3{fill:#1B2743;}
	.st4{fill:#4AADC6;}
	.st5{opacity:0.6;fill:#FFFFFF;}
	.st6{fill:#FFFFFF;}
	.st7{fill:none;stroke:#1B2743;stroke-linecap:round;stroke-linejoin:round;stroke-miterlimit:10;}
	.st8{display:none;fill:none;stroke:#000000;stroke-miterlimit:10;}
</style>
<g id="bg" class="st0">
	<rect x="-20.1" y="-22.2" class="st1" width="926" height="547.7"/>
	<rect x="-24" y="-20.6" class="st2" width="922.5" height="385.5"/>
</g>
<g id="alap">
</g>
<g id="sens" class="st0">
</g>
<g id="világosítás">
</g>
<g id="novatel">
</g>
<g id="negyz">
	<rect x="-0.2" y="1.1" class="st8" width="168.7" height="168.7"/>
</g>
<g id="sick">
</g>
<g id="zed">
</g>
<g id="velodyne">
	<path id="bg_1_" class="st6" d="M84.1,19.6c-29.4,0-59.7,8.2-59.7,21.8v78.5c0,14.2,26.2,25.3,59.7,25.3s59.7-11.1,59.7-25.3V41.4
		C143.8,27.8,113.4,19.6,84.1,19.6z"/>
	<ellipse class="st7" cx="84.2" cy="41.8" rx="57.3" ry="19.7"/>
	<path class="st7" d="M141.5,58.5c0,10.9-25.7,19.7-57.3,19.7s-57.3-8.8-57.3-19.7"/>
	<path class="st7" d="M141.5,101.5c0,11.3-25.7,20.4-57.3,20.4s-57.3-9.1-57.3-20.4"/>
	<path class="st7" d="M26.9,41.8v78c0,12.8,25.7,23.2,57.3,23.2s57.3-10.4,57.3-23.2v-78"/>
</g>
<g id="ouster">
</g>
<g id="duro">
</g>
<g id="kvh">
</g>
<g id="cont">
</g>
</svg>
