<?xml version="1.0" encoding="utf-8"?>
<!-- Generator: Adobe Illustrator 22.0.1, SVG Export Plug-In . SVG Version: 6.00 Build 0)  -->
<svg version="1.1" xmlns="http://www.w3.org/2000/svg" xmlns:xlink="http://www.w3.org/1999/xlink" x="0px" y="0px"
	 viewBox="0 0 170.1 170.1" style="enable-background:new 0 0 170.1 170.1;" xml:space="preserve">
<style type="text/css">
	.st0{display:none;}
	.st1{display:inline;fill:#FFFFFF;}
	.st2{display:inline;fill:#A0A0A0;}
	.st3{fill:#1B2743;}
	.st4{fill:#4AADC6;}
	.st5{opacity:0.6;fill:#FFFFFF;}
	.st6{fill:#FFFFFF;}
	.st7{fill:none;stroke:#1B2743;stroke-linecap:round;stroke-linejoin:round;stroke-miterlimit:10;}
	.st8{display:none;fill:none;stroke:#000000;stroke-miterlimit:10;}
</style>
<g id="bg" class="st0">
	<rect x="-19.9" y="-197.6" class="st1" width="926" height="547.7"/>
	<rect x="-23.8" y="-196" class="st2" width="922.5" height="385.5"/>
</g>
<g id="alap">
</g>
<g id="sens" class="st0">
</g>
<g id="világosítás">
</g>
<g id="novatel">
</g>
<g id="negyz">
	<rect x="0.1" y="3.1" class="st8" width="168.7" height="168.7"/>
</g>
<g id="sick">
</g>
<g id="zed">
	<path class="st6" d="M151.9,65.7C151.9,65.7,151.9,65.7,151.9,65.7c-1-1.2-2.5-1.9-4.2-1.9l-18.6-2.1c-0.1,0-0.3,0-0.4,0L19.1,67.4
		c-0.3,0-0.6,0.1-0.8,0.2c-0.6,0.1-1.1,0.3-1.5,0.5c-3.5,2-8.7,8.9-9.1,16.7c-0.4,7.2,3.4,13.5,5,15.9c0.8,1.1,1.9,1.9,3.2,2.2
		l20.4,4.6c1,0.3,1.9,0.5,2.5,0.6l0.1,0c0.2,0.1,0.5,0.1,0.7,0c0.2,0,0.3,0,0.3,0c0,0,0,0,0,0c0.1,0,0.3,0,0.4,0l109.8-18.8
		c0.1,0,0.2,0,0.3-0.1c1.2-0.4,4.7-1.5,5.4-13.2C156.2,71.2,152.9,66.9,151.9,65.7z"/>
	<path class="st7" d="M38.8,74.7L148,66.3c0.9-0.1,1.8,0.3,2.3,1c1.4,1.7,3.6,5.3,3.4,8.7c-0.2,4-1.1,10.1-3.7,10.9L40.3,105.7
		c0,0-10.5,0-11-12.8S38.8,74.7,38.8,74.7z"/>
	<path class="st7" d="M49.4,88.9c-0.2-3,0.4-8.7,7.4-9.6c7-0.9,7.2,5.8,7.3,6.8c0.1,0.9,1,9.2-6.2,10.2S49.6,91.7,49.4,88.9z"/>
	<path class="st7" d="M137.6,78.6c-0.1-1.7,0.2-5.2,3.9-5.5c3.3-0.3,3.8,3.4,3.8,3.9c0,0.5,0,5.4-3.3,5.8
		C138.3,83.3,137.7,80.2,137.6,78.6z"/>
	<path class="st7" d="M84,85c0-0.4,0-1,0.8-1.1s0.8,0.7,0.8,0.8s0.1,1.1-0.7,1.2S84,85.3,84,85z"/>
	<path class="st7" d="M39.8,105.7l-23.1-5.1c-0.7-0.2-1.3-0.6-1.7-1.2c-1.5-2.2-5-7.9-4.6-14.3c0.4-7,5-13.1,7.9-14.7
		c0.6-0.3,1.3-0.4,2-0.2l18.5,4.6"/>
	<polyline class="st7" points="19.6,69.9 129.2,64.2 148,66.3 	"/>
</g>
<g id="velodyne">
</g>
<g id="ouster">
</g>
<g id="duro">
</g>
<g id="kvh">
</g>
<g id="cont">
</g>
</svg>
