<?xml version="1.0" encoding="utf-8"?>
<!-- Generator: Adobe Illustrator 22.0.1, SVG Export Plug-In . SVG Version: 6.00 Build 0)  -->
<svg version="1.1" xmlns="http://www.w3.org/2000/svg" xmlns:xlink="http://www.w3.org/1999/xlink" x="0px" y="0px"
	 viewBox="0 0 170.1 170.1" style="enable-background:new 0 0 170.1 170.1;" xml:space="preserve">
<style type="text/css">
	.st0{display:none;}
	.st1{display:inline;fill:#FFFFFF;}
	.st2{display:inline;fill:#A0A0A0;}
	.st3{fill:#1B2743;}
	.st4{fill:#4AADC6;}
	.st5{opacity:0.6;fill:#FFFFFF;}
	.st6{fill:#FFFFFF;}
	.st7{fill:none;stroke:#1B2743;stroke-linecap:round;stroke-linejoin:round;stroke-miterlimit:10;}
	.st8{display:none;fill:none;stroke:#000000;stroke-miterlimit:10;}
</style>
<g id="bg" class="st0">
	<rect x="-565.9" y="-21.9" class="st1" width="926" height="547.7"/>
	<rect x="-569.8" y="-20.3" class="st2" width="922.5" height="385.5"/>
</g>
<g id="alap">
</g>
<g id="sens" class="st0">
</g>
<g id="világosítás">
</g>
<g id="novatel">
</g>
<g id="negyz">
</g>
<g id="sick">
</g>
<g id="zed">
</g>
<g id="velodyne">
</g>
<g id="ouster">
</g>
<g id="duro">
</g>
<g id="kvh">
	<path class="st6" d="M35.3,60c0.1,1.2,0.2,2.4,0.4,3.6l6,59.7c0,0.3,0.1,0.5,0.2,0.8c2,4.3,4.9,8.3,8.6,11.9c0.5,0.5,1.2,0.8,2,0.7
		c0.7-0.1,1.4-0.4,1.8-1c0.1-0.2,0.4-0.5,1-0.5c0.7,0,1.2,0.6,1.2,1.2c0,0.4-0.2,0.6-0.3,0.8c-0.5,0.5-0.7,1.3-0.6,2
		s0.5,1.4,1.1,1.8c9,6.1,20.4,9.4,32.1,9.4c11.7,0,23.1-3.3,32.1-9.4c0.6-0.4,1-1.1,1.1-1.8c0.1-0.7-0.2-1.5-0.7-2
		c-0.2-0.2-0.3-0.4-0.3-0.9c0-0.7,0.6-1.2,1.2-1.2c0.4,0,0.8,0.2,1,0.6c0.4,0.6,1.1,1,1.8,1.1c0.7,0.1,1.5-0.2,2-0.7
		c3.9-3.7,6.9-7.9,8.9-12.5c0-0.1,0.1-0.1,0.1-0.2c0.1-0.3,0.2-0.6,0.2-0.9l7.4-58.1c0.1-0.8,0.2-1.6,0.3-2.5l0.3-2.6
		c0.1-0.4,0-0.8-0.1-1.2c-0.1-11-5.2-21.5-14.5-29.6c-0.6-0.5-1.4-0.7-2.1-0.6c-0.8,0.2-1.4,0.7-1.7,1.3c-0.2,0.4-0.7,0.9-1.4,0.9
		c-0.9,0-1.6-0.7-1.6-1.6c0-0.6,0.3-1,0.5-1.1c0.6-0.5,0.8-1.3,0.8-2.1c-0.1-0.8-0.5-1.5-1.2-1.9c-9.6-5.9-21-9.1-33.1-9.1
		c-1.1,0-2.3,0-3.4,0.1c-1.6-1.7-4.1-2.7-6.8-2.7c-3.9,0-7.3,2.1-8.4,5.2c-5.2,1.5-10.1,3.7-14.8,6.7c-0.6,0.4-1,1-1.1,1.7
		c-0.1,0.7,0.1,1.4,0.6,2c0.2,0.2,0.4,0.6,0.4,1c0,0.9-0.7,1.6-1.6,1.6c-0.5,0-1-0.3-1.3-0.7c-0.4-0.6-1-1-1.8-1.1
		c-0.7-0.1-1.4,0.1-2,0.6c-8.3,7.4-13.3,16.9-14,26.8"/>
	<path class="st7" d="M73,18.6c-5.7,1.5-10.7,3.8-15.3,6.7c0.6,0.7,1,1.6,1,2.6c0,2.3-1.8,4.1-4.1,4.1c-1.4,0-2.7-0.7-3.4-1.9
		c-8.3,7.3-13.3,17-13.3,27.6c0,10.1,4.5,19.3,12,26.5c0.7-1,1.9-1.7,3.3-1.7c2.3,0,4.1,1.8,4.1,4.1c0,1-0.4,2-1,2.7
		c9,6.1,20.7,9.8,33.5,9.8c12.8,0,24.5-3.7,33.5-9.8c-0.7-0.7-1.1-1.7-1.1-2.8c0-2.3,1.8-4.1,4.1-4.1c1.4,0,2.7,0.7,3.4,1.8
		c7.5-7.2,12-16.4,12-26.5c0-10.8-5.2-20.6-13.6-28c-0.7,1.4-2,2.3-3.7,2.3c-2.3,0-4.1-1.8-4.1-4.1c0-1.2,0.5-2.2,1.3-2.9
		c-8.8-5.4-19.8-8.7-31.8-8.7c-1.5,0-2.9,0-4.4,0.1"/>
	<path class="st7" d="M44.2,122.5c1.9,4.1,4.6,7.8,8.1,11.1c0.7-0.9,1.8-1.6,3-1.6c2.1,0,3.7,1.7,3.7,3.7c0,1-0.4,1.8-1,2.5
		c8.3,5.6,19,9,30.7,9c11.7,0,22.4-3.4,30.7-9c-0.6-0.7-1-1.6-1-2.6c0-2.1,1.7-3.7,3.7-3.7c1.3,0,2.4,0.7,3.1,1.7
		c3.6-3.5,6.5-7.5,8.4-11.9"/>
	<ellipse class="st7" cx="79.5" cy="18.7" rx="6.3" ry="4.9"/>
	<path class="st7" d="M86.4,28.4c0,2.7-3.1,4.9-6.9,4.9s-6.9-2.2-6.9-4.9"/>
	<path class="st7" d="M86,21.8c2.4,1.4,3.9,3.6,3.9,6.1c0,4.3-4.6,7.8-10.3,7.8s-10.3-3.5-10.3-7.8c0-2.5,1.4-4.7,3.9-6.1"/>
	<line class="st7" x1="72.6" y1="28.4" x2="73.2" y2="18.4"/>
	<line class="st7" x1="86.4" y1="28.4" x2="85.6" y2="17.5"/>
	<path class="st7" d="M79.4,17.8C79.4,17.8,79.4,17.8,79.4,17.8"/>
	<path class="st7" d="M79.4,19.6C79.4,19.6,79.4,19.6,79.4,19.6"/>
	<path class="st7" d="M79.4,21.4C79.4,21.4,79.4,21.4,79.4,21.4"/>
	<path class="st7" d="M77.4,22.1C77.3,22.1,77.4,22.1,77.4,22.1"/>
	<path class="st7" d="M77.4,20.3C77.4,20.3,77.4,20.3,77.4,20.3"/>
	<path class="st7" d="M77.4,18.5C77.4,18.6,77.4,18.5,77.4,18.5"/>
	<path class="st7" d="M77.4,16.9C77.4,16.9,77.4,16.9,77.4,16.9"/>
	<path class="st7" d="M75.3,19.4C75.3,19.4,75.3,19.4,75.3,19.4"/>
	<path class="st7" d="M81.4,16.7C81.3,16.7,81.3,16.7,81.4,16.7"/>
	<path class="st7" d="M81.4,18.7C81.3,18.7,81.4,18.7,81.4,18.7"/>
	<path class="st7" d="M81.4,20.4C81.4,20.4,81.4,20.4,81.4,20.4"/>
	<path class="st7" d="M81.3,22C81.2,22,81.3,21.9,81.3,22"/>
	<path class="st7" d="M83.2,19.5C83.1,19.5,83.2,19.5,83.2,19.5"/>
	<path class="st7" d="M103.7,23.8C103.6,23.8,103.7,23.8,103.7,23.8"/>
	<ellipse class="st7" cx="103.6" cy="23.1" rx="3.4" ry="2.7"/>
	<path class="st7" d="M107.4,28.4c0,1.5-1.7,2.7-3.7,2.7s-3.7-1.2-3.7-2.7"/>
	<path class="st7" d="M107.2,24.8c1.3,0.8,2.1,1.9,2.1,3.3c0,2.4-2.5,4.3-5.6,4.3c-3.1,0-5.6-1.9-5.6-4.3c0-1.4,0.8-2.6,2.1-3.3"/>
	<line class="st7" x1="99.9" y1="28.4" x2="100.2" y2="23"/>
	<line class="st7" x1="107.4" y1="28.4" x2="107" y2="22.4"/>
	<line class="st7" x1="37.9" y1="57.6" x2="44.2" y2="122.5"/>
	<line class="st7" x1="141.8" y1="58.4" x2="133.6" y2="121.9"/>
	<line class="st7" x1="63.4" y1="93.8" x2="66.8" y2="143"/>
	<line class="st7" x1="114.3" y1="94.2" x2="110.8" y2="142.7"/>
</g>
<g id="cont">
</g>
</svg>
