<?xml version="1.0" encoding="utf-8"?>
<!-- Generator: Adobe Illustrator 22.0.1, SVG Export Plug-In . SVG Version: 6.00 Build 0)  -->
<svg version="1.1" xmlns="http://www.w3.org/2000/svg" xmlns:xlink="http://www.w3.org/1999/xlink" x="0px" y="0px"
	 viewBox="0 0 170.1 170.1" style="enable-background:new 0 0 170.1 170.1;" xml:space="preserve">
<style type="text/css">
	.st0{display:none;}
	.st1{display:inline;fill:#FFFFFF;}
	.st2{display:inline;fill:#A0A0A0;}
	.st3{fill:#1B2743;}
	.st4{fill:#4AADC6;}
	.st5{opacity:0.6;fill:#FFFFFF;}
	.st6{fill:#FFFFFF;}
	.st7{fill:none;stroke:#1B2743;stroke-linecap:round;stroke-linejoin:round;stroke-miterlimit:10;}
	.st8{display:none;fill:none;stroke:#000000;stroke-miterlimit:10;}
</style>
<g id="bg" class="st0">
	<rect x="-375.4" y="-197.6" class="st1" width="926" height="547.7"/>
	<rect x="-379.3" y="-196" class="st2" width="922.5" height="385.5"/>
</g>
<g id="alap">
</g>
<g id="sens" class="st0">
</g>
<g id="világosítás">
</g>
<g id="novatel">
</g>
<g id="negyz">
	<rect x="1.9" y="3.1" class="st8" width="168.7" height="168.7"/>
</g>
<g id="sick">
</g>
<g id="zed">
</g>
<g id="velodyne">
</g>
<g id="ouster">
</g>
<g id="duro">
	<path class="st6" d="M145.5,96.2c-0.1-0.8-0.5-1.5-1.1-1.9l-0.9-0.6c0.1-0.2,0.1-0.4,0.1-0.6l0.4-25.9c0-1-0.5-1.8-1.4-2.3
		l-7.7-3.9c0,0-0.1,0-0.1-0.1c0,0,0,0,0,0c0,0,0,0,0,0c0,0,0,0,0,0L123,56.2c-0.1-0.1-0.3-0.1-0.4-0.1L94,43.3
		c-0.8-0.3-1.7-0.3-2.4,0.2c-0.7,0.5-1.1,1.2-1.2,2.1l0,1.7l-1.5-3.2c-0.5-1-1.6-1.6-2.7-1.4l-4.1,0.8c-1.2,0.2-2,1.3-2,2.5l0.1,5.1
		l0,0l-1.5-4.6c-0.4-1.2-1.6-1.9-2.8-1.7l-4.8,0.8C69.9,46,69,47,69,48.2l0,4.8l-1.2-4.3c-0.4-1.3-1.7-2-3-1.7l-3.9,0.9
		c-1,0.2-1.8,1-1.9,2.1l-0.3,1.8l-0.5-2C58,49,57.6,48.5,57,48.1s-1.3-0.4-2-0.2l-2.8,0.9c-0.9,0.3-1.6,1-1.7,1.9l-0.1,0.8
		c-0.2-0.5-0.5-1-1-1.3c-0.6-0.4-1.2-0.5-1.9-0.3l-3,0.7c-1,0.2-1.7,1-1.9,1.9l-0.6,2.9l-0.1-0.5c-0.2-0.9-0.8-1.6-1.6-1.9
		c-0.8-0.3-1.8-0.2-2.5,0.4L35.6,55c-0.6,0.5-0.9,1.2-0.9,2l0.8,30.6l-7.7,1.8c-0.8,0.2-1.4,0.7-1.7,1.4c-0.5,1-0.5,2.7,0,4.9
		c0.1,0.5,0.4,1,0.9,1.4l29,23.7c0.5,0.5,1.5,1.2,4.8,1.2c0.5,0,1.1,0,1.7-0.1c0.1,0,0.3,0,0.4-0.1l80.9-18.2c1.2-0.3,2-1.4,1.9-2.6
		L145.5,96.2z"/>
	<path class="st7" d="M120,99.3c1.1,0.9,1.4,3.2,1.4,3.2l12.8-3L141,93l0.2-9.4l0.3-16.4l-7.8-3.9l-12.2,2.1c0,0,0.9,5.2-1.4,5.3
		s-3.4-1.8-3.3-4.3l-26.1,4.3c0,0,0.7,5.4-2.1,5.9s-3.3-4.6-3.3-4.6l-2.2,0.3l-9.9,8.4l0.2,26.3l9.5,4.3l3.3-0.8c0,0-0.8-4.6,1.7-5
		c2.4-0.4,3.3,3.8,3.3,3.8l25.9-5.9c0,0-0.2-1-0.2-2"/>
	<path class="st7" d="M139.9,94.4l3.1,2l0.3,4.8l-80.9,18.3c0,0-4.1,0.3-4.7-0.5L28.6,95.1c0,0-0.6-2.5-0.2-3.3l9.7-2.3l-0.9-32.7
		l2.1-1.8l1,5.5l3.1-0.5l1.6-7.1l3-0.7l1.4,6.8l2.1-0.4l1.4-7.5l2.8-0.9l1.6,7.1"/>
	<line class="st7" x1="57.8" y1="74.5" x2="60.8" y2="76.4"/>
	<polyline class="st7" points="51.3,71 54.7,72.9 56,73.6 	"/>
	<polyline class="st7" points="45.3,67.5 48.8,69.5 49.1,69.7 	"/>
	<polyline class="st7" points="38.5,59.2 39.5,64.3 41.6,65.5 43.2,66.5 	"/>
	<polyline class="st7" points="45.6,59.2 44.9,65.6 45.2,67.2 	"/>
	<polyline class="st7" points="52.2,60.6 50.8,67.9 51.3,71 	"/>
	<polyline class="st7" points="59.9,62.4 58.1,70.2 57.6,74.4 	"/>
	<polyline class="st7" points="61.8,74.3 63.3,72.7 64.8,65 	"/>
	<polyline class="st7" points="67.6,70.1 72.2,67.4 122.1,58.5 133.7,63.3 	"/>
	<line class="st7" x1="38.1" y1="89.6" x2="66.9" y2="109.9"/>
	<polyline class="st7" points="57.4,57.3 60.4,57 61.4,50.3 65.3,49.4 67.2,55.9 71.4,55.1 71.5,48.2 76.2,47.5 78.4,54 82.7,53.3 
		82.6,46 86.7,45.2 90,52 92.9,51.4 93,45.6 120.2,57.7 	"/>
	<line class="st7" x1="97.6" y1="61.6" x2="101.4" y2="51.6"/>
	<line class="st7" x1="105.2" y1="59.9" x2="107.2" y2="54.2"/>
	<line class="st7" x1="91.4" y1="61.9" x2="95.1" y2="51.9"/>
	<line class="st7" x1="83.5" y1="62.8" x2="87.8" y2="52.5"/>
	<line class="st7" x1="76.6" y1="63.5" x2="79.5" y2="55.8"/>
	<line class="st7" x1="69.5" y1="64.2" x2="73.3" y2="54.2"/>
	<ellipse transform="matrix(0.9869 -0.1614 0.1614 0.9869 -11.9451 17.0646)" class="st7" cx="99.1" cy="82.1" rx="4.1" ry="4.1"/>
	<ellipse transform="matrix(0.9869 -0.1614 0.1614 0.9869 -14.9312 17.297)" class="st7" cx="99" cy="100.6" rx="4.1" ry="4.1"/>
	<ellipse transform="matrix(0.9869 -0.1614 0.1614 0.9869 -14.1613 20.0262)" class="st7" cx="116.2" cy="97.2" rx="4.1" ry="4.1"/>
	<ellipse transform="matrix(0.9869 -0.1614 0.1614 0.9869 -11.1954 19.7955)" class="st7" cx="116.3" cy="78.8" rx="4.1" ry="4.1"/>
	<path class="st7" d="M136.5,75.5c-0.5-3.1-3.5-5.3-6.7-4.7c-3.2,0.5-5.4,3.5-4.9,6.7c0.5,3.2,3.5,5.3,6.7,4.8
		c0.6-0.1,1.2-0.3,1.8-0.6"/>
	<ellipse transform="matrix(0.9869 -0.1614 0.1614 0.9869 -10.9632 22.98)" class="st7" cx="136" cy="79" rx="3.6" ry="3.5"/>
	<path class="st7" d="M133.1,73.7c-1.1-0.5-1.3-0.5-2.3-0.4c-1.9,0.3-3.3,2.1-2.9,4c0.3,1.6,1.4,2.4,2.3,2.7"/>
	<line class="st7" x1="132.6" y1="73.5" x2="137.2" y2="75.8"/>
	<line class="st7" x1="130" y1="80" x2="134.6" y2="82.1"/>
	<ellipse transform="matrix(0.9869 -0.1614 0.1614 0.9869 -15.244 14.6983)" class="st7" cx="82.9" cy="101.2" rx="0.9" ry="0.9"/>
	<ellipse transform="matrix(0.9869 -0.1614 0.1614 0.9869 -14.2724 14.6194)" class="st7" cx="82.9" cy="95.2" rx="0.9" ry="0.9"/>
	<ellipse transform="matrix(0.9869 -0.1614 0.1614 0.9869 -13.3379 14.5435)" class="st7" cx="82.9" cy="89.4" rx="0.9" ry="0.9"/>
	<ellipse transform="matrix(0.9869 -0.1614 0.1614 0.9869 -12.4067 14.4679)" class="st7" cx="82.9" cy="83.6" rx="0.9" ry="0.9"/>
</g>
<g id="kvh">
</g>
<g id="cont">
</g>
</svg>
