<?xml version="1.0" encoding="utf-8"?>
<!-- Generator: Adobe Illustrator 22.0.1, SVG Export Plug-In . SVG Version: 6.00 Build 0)  -->
<svg version="1.1" xmlns="http://www.w3.org/2000/svg" xmlns:xlink="http://www.w3.org/1999/xlink" x="0px" y="0px"
	 viewBox="0 0 170.1 170.1" style="enable-background:new 0 0 170.1 170.1;" xml:space="preserve">
<style type="text/css">
	.st0{display:none;}
	.st1{display:inline;fill:#FFFFFF;}
	.st2{display:inline;fill:#A0A0A0;}
	.st3{fill:#1B2743;}
	.st4{fill:#4AADC6;}
	.st5{opacity:0.6;fill:#FFFFFF;}
	.st6{fill:#FFFFFF;}
	.st7{fill:none;stroke:#1B2743;stroke-linecap:round;stroke-linejoin:round;stroke-miterlimit:10;}
	.st8{display:none;fill:none;stroke:#000000;stroke-miterlimit:10;}
</style>
<g id="bg" class="st0">
	<rect x="-198" y="-197.6" class="st1" width="926" height="547.7"/>
	<rect x="-201.9" y="-196" class="st2" width="922.5" height="385.5"/>
</g>
<g id="alap">
</g>
<g id="sens" class="st0">
</g>
<g id="világosítás">
</g>
<g id="novatel">
	<path class="st6" d="M159.8,100.9c0-4.2-0.5-5-0.8-5.4c-0.1-0.2-1.7-2.1-3-3.4c-0.1-3.2-0.2-14.3-0.2-21.4c0-0.6-0.2-1.1-0.5-1.6
		l-4.3-5.4c-0.3-0.4-0.8-0.7-1.3-0.8l-7.3-2.1l-9-4.2l-24.1-17.4c-0.5-0.4-1.1-0.5-1.8-0.5l-9,1.1h-7.8c-0.1,0-0.1,0-0.2,0l-9.9,0.8
		c-0.1,0-0.2,0-0.3,0l-33.5,6.6c-0.1,0-0.2,0.1-0.4,0.1l-6.6,2.4l-15.5,5.4c-4.1,0.4-6,3.5-6.5,5.3c-0.1,0.2-0.1,0.4-0.1,0.7l0,11.1
		c-5.9,2-7.6,6.7-7.7,7c-0.1,0.3-0.1,0.6-0.1,0.9l0.3,8.9c0,0.5,0.2,1,0.5,1.4l28.5,38.4c0.5,0.8,3.1,4.3,8.1,4.3
		c0.8,0,1.6-0.1,2.5-0.3c5.4-1.2,99.3-24.2,104.7-25.5C157,107,160.2,105,159.8,100.9z M155.4,91.5c-0.4-0.3-0.7-0.5-1-0.6
		C154.8,91,155.1,91.3,155.4,91.5z"/>
	<path class="st7" d="M39.8,125.4L40,120l0.5-22.2l7-5.5l14.3-3.8l7.5-4.3l63.3-13.4l5.9,1.3l12.7-2l2.3,1c0,0,0.1,22.5,0.3,22.6
		c0.3,0.1,2.9,2.8,3.3,3.5c0.4,0.7,0.4,4.3,0.4,4.3c0.4,3.4-3.3,3.9-3.3,3.9S55,129.8,49.5,130.9s-8-3-8-3L13,89.4l-0.3-8.9
		c0,0,1.5-4.5,7.5-5.8"/>
	<path class="st7" d="M129.5,99.4c8.5-1.9,16.5-2.9,24.2-5.6"/>
	<path class="st7" d="M40,120c28.1-7.6,57.1-12.6,84.6-19.5"/>
	<ellipse class="st7" cx="126.2" cy="97" rx="3.6" ry="3.5"/>
	<path class="st7" d="M82.3,101.3l17.3-3.6c0,0,1.8-0.4,1.9,0.8s-0.7,5.1-0.7,5.1s-0.4,0.9-1.2,1.1c-0.8,0.2-16.7,3.7-16.7,3.7
		s-1.5,0.4-1.7-0.6c-0.2-0.9-0.6-4.9-0.6-4.9S80.6,101.8,82.3,101.3z"/>
	<polygon class="st7" points="71.7,86.8 71.7,94.3 71.7,97.3 84.1,94.9 83.9,84.4 	"/>
	<polyline class="st7" points="71.7,94.3 75.3,93.8 75.3,94.7 76.4,94.5 76.5,96.3 	"/>
	<polyline class="st7" points="79.6,95.8 79.5,94.2 80.5,94 80.4,92.8 83.7,92.2 	"/>
	<path class="st7" d="M128.2,93.9c0-0.3,0-0.2,0-0.5c0-3.1-2.6-5.6-5.7-5.6s-5.7,2.5-5.7,5.6c0,3.1,2.6,5.6,5.7,5.6
		c0.3,0,0.2,0,0.4,0"/>
	<path class="st7" d="M124.9,90.8c-0.6-0.5-1.4-0.9-2.3-0.9c-2,0-3.6,1.6-3.6,3.5c0,1.5,0.6,2.4,2.1,3.3"/>
	<line class="st7" x1="123.1" y1="98.8" x2="119.2" y2="94.6"/>
	<line class="st7" x1="127.7" y1="93.8" x2="124.7" y2="90.6"/>
	<path class="st7" d="M12.8,80.6l23.4,31.3l0.3-19.5l3.5-7.6l-19.4-23c0,0,0.9-3.3,4.6-3.5l15.7-5.5l6.6-2.4L81,43.7l9.9-0.8h8
		l9.1-1.1l24.3,17.5l9.4,4.4l7.5,2.1l4.3,5.4"/>
	<polyline class="st7" points="36.1,98.1 20.6,80.4 20.5,61.7 	"/>
	<polygon class="st7" points="97.1,80.3 97.2,83.7 104.3,82.2 104.3,78.8 	"/>
	<polyline class="st7" points="124.2,74.5 116.9,76 117,79.4 	"/>
	<polyline class="st7" points="117,79.4 124.2,77.9 124.2,74.5 	"/>
	<ellipse transform="matrix(0.9873 -0.1587 0.1587 0.9873 -14.4792 10.6181)" class="st7" cx="59.2" cy="95.9" rx="4" ry="3.6"/>
	<ellipse transform="matrix(0.9873 -0.1587 0.1587 0.9873 -16.5826 10.7861)" class="st7" cx="59.2" cy="109.2" rx="4" ry="3.6"/>
	<path class="st7" d="M144.9,83.2c0.3,2-5.2,5.3-7.4,5.6s-4.2-1-4.6-2.9c-0.3-2,1.2-3.9,3.4-4.2S144.6,81.2,144.9,83.2z"/>
</g>
<g id="negyz">
	<rect x="0.7" y="3.1" class="st8" width="168.7" height="168.7"/>
</g>
<g id="sick">
</g>
<g id="zed">
</g>
<g id="velodyne">
</g>
<g id="ouster">
</g>
<g id="duro">
</g>
<g id="kvh">
</g>
<g id="cont">
</g>
</svg>
