<?xml version="1.0" encoding="utf-8"?>
<!-- Generator: Adobe Illustrator 22.0.1, SVG Export Plug-In . SVG Version: 6.00 Build 0)  -->
<svg version="1.1" xmlns="http://www.w3.org/2000/svg" xmlns:xlink="http://www.w3.org/1999/xlink" x="0px" y="0px"
	 viewBox="0 0 170.1 170.1" style="enable-background:new 0 0 170.1 170.1;" xml:space="preserve">
<style type="text/css">
	.st0{display:none;}
	.st1{display:inline;fill:#FFFFFF;}
	.st2{display:inline;fill:#A0A0A0;}
	.st3{fill:#1B2743;}
	.st4{fill:#4AADC6;}
	.st5{opacity:0.6;fill:#FFFFFF;}
	.st6{fill:#FFFFFF;}
	.st7{fill:none;stroke:#1B2743;stroke-linecap:round;stroke-linejoin:round;stroke-miterlimit:10;}
	.st8{display:none;fill:none;stroke:#000000;stroke-miterlimit:10;}
</style>
<g id="bg" class="st0">
	<rect x="-198.4" y="-21.9" class="st1" width="926" height="547.7"/>
	<rect x="-202.3" y="-20.3" class="st2" width="922.5" height="385.5"/>
</g>
<g id="alap">
</g>
<g id="sens" class="st0">
</g>
<g id="világosítás">
</g>
<g id="novatel">
</g>
<g id="negyz">
	<rect x="0.3" y="1.4" class="st8" width="168.7" height="168.7"/>
</g>
<g id="sick">
</g>
<g id="zed">
</g>
<g id="velodyne">
</g>
<g id="ouster">
	<path class="st6" d="M145.5,101.3c0-0.3-0.1-0.5-0.2-0.8l-1.7-4l0.1-3c0-0.3-0.1-0.7-0.2-1l-4.4-8.5l0.4-26.1
		c0.1-0.8,0.1-1.5,0.1-2.2c0-0.6,0-1.1-0.1-1.7l0,0c0-0.2,0-0.4-0.1-0.5c-2-16.5-25.6-29.4-54-29.4c-29.8,0-54.1,14.2-54.1,31.7
		c0,0.4,0,0.9,0.1,1.4c0,0.1-0.1,0.3-0.1,0.5L31,83.8l-4.4,8.6c-0.2,0.3-0.2,0.6-0.2,1l0.1,3l-1.7,4c-0.1,0.2-0.2,0.5-0.2,0.8
		l-0.1,10.3c0,1,0.8,1.9,1.8,2l0.3,0v6.6c0,0.5,0.2,1.1,0.6,1.4c0.4,0.4,0.9,0.6,1.5,0.6c1.1,0,2.2,0,3,0.1v5.9
		c0,0.6,0.2,1.1,0.6,1.5c0.4,0.4,1,0.6,1.5,0.5c2.6-0.2,5.5-0.1,6.9,0.2v4.9c0,0.6,0.3,1.2,0.8,1.6c0.5,0.4,1.1,0.5,1.7,0.3
		c3-0.8,7.7-1.3,9.5-0.3v3c0,0.6,0.3,1.2,0.8,1.6c0.5,0.4,1.1,0.5,1.7,0.4c3.5-0.8,9.2-1.3,11,0.2c0.3,0.2,0.5,0.5,0.5,1.2
		c0,0.9,0.6,1.7,1.4,1.9l1.9,0.6c0.7,0.2,1.4,0,1.9-0.4c0,0,3.1-2.8,6.2-2.5c1.5,0.2,2.7,1,3.9,2.6c0.4,0.5,0.9,0.8,1.6,0.8l2.1,0.1
		c0,0,0.1,0,0.1,0c0.6,0,1.2-0.3,1.6-0.8l0.1-0.1c0.1-0.1,0.2-0.2,0.3-0.3c1.1-1.6,2.4-2.5,3.9-2.6c3.1-0.3,6.2,2.4,6.2,2.5
		c0.5,0.5,1.3,0.6,1.9,0.4l1.9-0.6c0.9-0.3,1.4-1,1.4-1.9c0-0.7,0.2-1,0.5-1.2c1.8-1.5,7.6-1,11-0.2c0.6,0.1,1.2,0,1.7-0.4
		c0.5-0.4,0.8-1,0.8-1.6v-3c1.8-1,6.4-0.5,9.5,0.3c0.6,0.2,1.2,0,1.7-0.3c0.5-0.4,0.8-1,0.8-1.6V130c1.4-0.3,4.3-0.4,6.9-0.2
		c0.6,0,1.1-0.1,1.5-0.5c0.4-0.4,0.6-0.9,0.6-1.5v-5.9c0.8-0.1,1.9-0.1,3-0.1c0.5,0,1.1-0.2,1.5-0.6s0.6-0.9,0.6-1.4v-6.2l0.3,0
		c1-0.1,1.8-1,1.8-2L145.5,101.3z"/>
	<ellipse class="st7" cx="85.7" cy="55.7" rx="52.1" ry="29.8"/>
	<ellipse class="st7" cx="86.1" cy="55.2" rx="47.8" ry="26.4"/>
	<path class="st7" d="M33.6,57.6l-0.5,30.8c0,0.6,0,1.2,0.1,1.8c1.7,15.4,24.3,27.5,52,27.5c27.8,0,50.6-12.3,52-27.8l0.5-36.1"/>
	<polyline class="st7" points="33.2,84.2 28.5,93.3 28.6,96.7 26.8,101.1 26.7,111.4 28.5,111.6 	"/>
	<path class="st7" d="M28.8,110.1v9.9c0,0,4.5-0.2,5.1,0.6v7.4c0,0,7.3-0.6,9.1,0.8v6.3c0,0,9.3-2.5,12,0.7v3.9c0,0,14.1-3.3,14,3.4
		l1.9,0.6c0,0,7.8-7.1,13.1,0.5l2.1,0.1"/>
	<path class="st7" d="M27.8,100.9c0,0,2.8-8.8,5-8.7s-4,17-4,17l0.7,0.9c0,0,3.7-10.8,7-10.3c3.3,0.4-1.8,17.8-1.8,17.8l0.8,0.8
		c0,0,5.1-13.2,7.6-11.8c2.5,1.4,0.3,18.6,0.3,18.6l1,0.3c0,0,6.2-15.5,8.6-14c2.4,1.5,3.8,16.1,2.5,18.7l1.3,0.8
		c0,0,4.3-17.3,8.2-15.9c4,1.3,4.2,18.7,4.2,18.7l1.8,0.5c0,0,3.3-18.5,6.9-17.1s5.7,17.1,6,17.7l1.8,0"/>
	<polyline class="st7" points="137.3,84.3 141.9,93.4 141.8,96.8 143.7,101.2 143.8,111.6 141.9,111.7 140.5,109.2 	"/>
	<path class="st7" d="M141.6,109.9v9.9c0,0-4.5-0.2-5.1,0.6v7.4c0,0-7.3-0.6-9.1,0.8v6.3c0,0-9.3-2.5-12,0.7v3.9
		c0,0-14.1-3.3-14,3.4l-1.9,0.6c0,0-7.8-7.1-13.1,0.5"/>
	<path class="st7" d="M143,101.7c0,0-2.9-8.5-5.1-8.4c-2.2,0.1,4.1,16.5,4.1,16.5l-0.7,0.9c0,0-3.7-10.4-7.1-10
		c-3.4,0.4,1.9,17.3,1.9,17.3l-0.9,0.7c0,0-5.2-12.8-7.7-11.4c-2.6,1.4-0.3,18-0.3,18l-1,0.3c0,0-6.3-15-8.8-13.6
		c-2.5,1.5-3.9,15.6-2.6,18.1l-1.4,0.7c0,0-4.3-16.7-8.4-15.4s-4.3,18.2-4.3,18.2l-1.8,0.5c0,0-3.3-17.9-7.1-16.5
		s-5.8,16.5-6.1,17.1"/>
	<line class="st7" x1="34.2" y1="122.9" x2="35.2" y2="117.8"/>
	<line class="st7" x1="43.2" y1="129.7" x2="44" y2="125.3"/>
	<line class="st7" x1="55" y1="135.8" x2="56.3" y2="130.2"/>
	<path class="st7" d="M69,143.1c0.1-0.7,1-9.5,1-9.5"/>
	<line class="st7" x1="85" y1="144.2" x2="85" y2="134.9"/>
	<line class="st7" x1="100.2" y1="142.9" x2="99.6" y2="133.7"/>
	<line class="st7" x1="115.4" y1="139.4" x2="113.5" y2="129.8"/>
	<line class="st7" x1="127.4" y1="128.6" x2="125.7" y2="124.8"/>
	<line class="st7" x1="136.5" y1="120.4" x2="134.6" y2="117.6"/>
</g>
<g id="duro">
</g>
<g id="kvh">
</g>
<g id="cont">
</g>
</svg>
