<?xml version="1.0" encoding="utf-8"?>
<!-- Generator: Adobe Illustrator 22.0.1, SVG Export Plug-In . SVG Version: 6.00 Build 0)  -->
<svg version="1.1" xmlns="http://www.w3.org/2000/svg" xmlns:xlink="http://www.w3.org/1999/xlink" x="0px" y="0px"
	 viewBox="0 0 168.1 170.1" style="enable-background:new 0 0 168.1 170.1;" xml:space="preserve">
<style type="text/css">
	.st0{display:none;}
	.st1{display:inline;fill:#FFFFFF;}
	.st2{display:inline;fill:#A0A0A0;}
	.st3{fill:#1B2743;}
	.st4{fill:#4AADC6;}
	.st5{opacity:0.6;fill:#FFFFFF;}
	.st6{fill:#FFFFFF;}
	.st7{fill:none;stroke:#1B2743;stroke-linecap:round;stroke-linejoin:round;stroke-miterlimit:10;}
	.st8{display:none;fill:none;stroke:#000000;stroke-miterlimit:10;}
</style>
<g id="bg" class="st0">
	<rect x="-566" y="-198.9" class="st1" width="926" height="547.7"/>
	<rect x="-569.9" y="-197.3" class="st2" width="922.5" height="385.5"/>
</g>
<g id="alap">
</g>
<g id="sens" class="st0">
</g>
<g id="világosítás">
</g>
<g id="novatel">
</g>
<g id="negyz">
</g>
<g id="sick">
</g>
<g id="zed">
</g>
<g id="velodyne">
</g>
<g id="ouster">
</g>
<g id="duro">
</g>
<g id="kvh">
</g>
<g id="cont">
	<path class="st6" d="M144.9,33.6c-0.1-0.1-0.1-0.2-0.2-0.3c-2.8-3.5-5.9-3.7-8.4-3c-1.3-1.2-3.2-1.6-3.7-1.7c-0.1,0-0.3,0-0.4,0
		l-91.2,1.5c-1-0.5-3.1-1.3-5.6-1.2C32,29,29.7,31.5,29,35.4c-0.6,3.1,1.9,5.8,3.5,7.1l1.3,21l-7.5,0.7c-0.6,0.1-1.2,0.4-1.6,0.8
		c-0.5-0.4-1.1-0.7-1.8-0.6l-5.7,0.3c-0.7,0-1.3,0.4-1.8,0.9s-0.7,1.2-0.6,1.9l3,31c0.1,0.7,0.4,1.3,0.9,1.7
		c0.5,0.4,1.2,0.6,1.9,0.5l15.5-1.9l1.2,15c-1.2,0.4-2.3,1.2-2.9,2.6c-1.1,2.6-0.3,5.2,2.2,6.9l0.9,0.6c0,0.1,0,0.2,0,0.3
		c0.1,1.4,0.6,2.7,1.6,3.6c1,0.9,2.5,1.4,4,1.4c0.1,0,0.3,0,0.4,0c1.9-0.1,3-1.5,3.7-2.3c0,0,0.1-0.1,0.1-0.1
		c1.5-0.3,6.2-1.1,10.2-1.7c0,0,0,0,0,0c2.4,0.7,5.5,0.8,9.6,0.2c0,0,0,0,0,0c0.2,0,0.4,0,0.6,0l58.1-11.6c5.7-1.1,8.2-3.6,9.2-9.3
		c0,0,0-0.1,0-0.1l7.4-56.7l0.5-5.3c1.3-1,2-2.2,2.2-3.2C146.4,36.4,145,33.8,144.9,33.6z"/>
	<polyline class="st7" points="40.5,65.7 26.5,66.9 26.3,68.6 23,68.8 23,67.1 17.3,67.4 20.3,98.4 43.2,95.6 	"/>
	<path class="st7" d="M36.5,66l-1.6-24.5c0,0-3.9-2.8-3.4-5.4c0.3-1.4,1.1-4.4,3.9-4.5s4.9,1.2,4.9,1.2l91.9-1.5
		c0,0,2.5,0.4,2.9,1.9"/>
	<path class="st7" d="M125.6,111.4L67.5,123c-4.5,0-8.6-2.4-8.6-6.9l-0.6-68.6c0-4.5,3.7-8.1,8.1-8.1h65.7c4.5,0,8.1,3.7,8.1,8.1
		l-7.4,56.6C132,108.9,130.1,110.5,125.6,111.4z"/>
	<path class="st7" d="M67,123c-10,1.4-12.7-1.5-12.7-6.2l-0.7-73c0-4.8,3.8-8.6,8.5-8.6h69.2c2.5-0.1,7-5.5,11.3-0.2
		c0,0,2.3,4-1.8,6.1l-0.7,6.5"/>
	<path class="st7" d="M44.4,75l-2.1-29.8c0,0-1-4.2-3.8-4s-3.8-2.5-3.8-2.5s-1.2-3.3,1.8-4.5c2.1-0.9,4.1,1.2,4.8,1.8
		c1,0.8,16.4,0.1,16.4,0.1"/>
	<path class="st7" d="M44.7,92.4l1.3,26.6c0,0-1.1,1.8-2.5,2.1c-1.4,0.3-3.5,1.2-3.4,3.3c0.1,2.2,2.2,2.7,3.4,2.6s2-1.8,2.7-2.2
		c0.7-0.4,11.2-2,11.2-2"/>
	<path class="st7" d="M38.5,97.9l1.5,18.4c0,0-2.5-0.4-3.3,1.3s0.1,3,1.4,3.9"/>
	<polyline class="st7" points="41.5,66.9 27.5,68.2 27.3,69.8 21.9,70.1 21.9,68.4 18.3,68.7 21,97 43.8,94.2 	"/>
</g>
</svg>
