<?xml version="1.0" encoding="utf-8"?>
<!-- Generator: Adobe Illustrator 22.0.1, SVG Export Plug-In . SVG Version: 6.00 Build 0)  -->
<svg version="1.1" xmlns="http://www.w3.org/2000/svg" xmlns:xlink="http://www.w3.org/1999/xlink" x="0px" y="0px"
	 viewBox="0 0 896.5 946.1" style="enable-background:new 0 0 896.5 946.1;" xml:space="preserve">
<style type="text/css">
	.st0{fill:#FFFFFF;}
	.st1{fill:#4AADC6;}
	.st2{fill:#1B2743;}
	.st3{fill:none;stroke:#1B2743;stroke-width:2;stroke-linecap:round;stroke-linejoin:round;stroke-miterlimit:10;}
	.st4{display:none;fill:none;stroke:#1B2743;stroke-width:2;stroke-linecap:round;stroke-linejoin:round;stroke-miterlimit:10;}
	
		.st5{fill:none;stroke:#000000;stroke-width:3;stroke-linecap:round;stroke-linejoin:round;stroke-miterlimit:10;stroke-dasharray:6;}
	
		.st6{fill:none;stroke:#4AADC6;stroke-width:3;stroke-linecap:round;stroke-linejoin:round;stroke-miterlimit:10;stroke-dasharray:6;}
	.st7{fill:none;stroke:#4AADC6;stroke-width:3;stroke-linecap:round;stroke-linejoin:round;stroke-miterlimit:10;}
</style>
<g id="bg">
	<rect x="-58.5" y="-25.1" class="st0" width="1032.1" height="999.9"/>
</g>
<g id="leaf_pont">
	<circle class="st1" cx="735.1" cy="97.4" r="6.3"/>
	<circle class="st1" cx="664.6" cy="133.6" r="6.3"/>
	<circle class="st1" cx="677.9" cy="241.9" r="6.3"/>
	<circle class="st1" cx="666.6" cy="169.3" r="6.3"/>
	<circle class="st1" cx="679.9" cy="205.4" r="6.3"/>
	<path id="sze_logo__x23_242943" class="st2" d="M665,906c0-1,0.1-1.3,1.3-1.4c8.7-0.5,15.8-4.1,21.2-11c3.8-4.8,5.7-10.2,6-16.3
		c0.1-1.3,1.2-1.2,2-1.2c1.2,0,0.9,0.7,0.9,1.4c-0.7,14-10.4,25.8-24,29.1c-1.9,0.5-3.9,0.7-5.9,0.8C665,907.6,665,907.6,665,906z
		 M690.6,877.6c0.1-0.7,0.1-1.3-1-1.3c-0.8,0-1.8-0.2-1.9,1.2c0,2.4-0.5,4.7-1.5,6.9c-3.8,9-10.5,14-20.2,14.6
		c-1.4,0.1-1.1,1.2-1,1.9c0.1,1,0.5,1,1.2,0.9c1.2-0.1,2.3-0.2,3.5-0.4c11.2-2,20-11.7,20.8-23.1
		C690.5,878.1,690.6,877.8,690.6,877.6z M738.5,880.7c1.4,0,2.8,0.5,4.1,1.5l1.7-2.5c-0.8-0.6-1.6-1.1-2.7-1.5c-1-0.3-2-0.5-3.1-0.5
		c-1.6,0-2.9,0.4-3.9,1.2c-1,0.8-1.6,1.9-1.6,3.3c0,1.4,0.4,2.5,1.2,3.2c0.8,0.7,2.1,1.2,3.9,1.6c1.1,0.3,1.9,0.5,2.2,0.8
		c0.4,0.3,0.6,0.6,0.6,1.1c0,0.5-0.2,0.8-0.5,1.1c-0.4,0.3-0.8,0.4-1.5,0.4c-1.4,0-2.9-0.7-4.6-2.2l-2,2.5c1.9,1.8,4.1,2.7,6.5,2.7
		c1.7,0,3-0.4,4-1.3c1-0.9,1.5-2,1.5-3.3c0-1.4-0.4-2.4-1.2-3.1c-0.8-0.7-1.9-1.2-3.4-1.6c-1.4-0.4-2.4-0.7-2.8-0.9
		c-0.4-0.3-0.6-0.6-0.6-1.1c0-0.4,0.2-0.8,0.5-1.1C737.5,880.9,737.9,880.7,738.5,880.7z M759.4,893.3v-3h-8.1l8-9.9v-2.4h-12.4v2.9
		h7.7l-8,10v2.3H759.4z M762.3,878.1v15.2h11.2v-3h-7.8v-3.2h6.8v-2.9h-6.8v-3.1h7.6v-3H762.3z M772.1,874.1l-3.4-1.4l-2.8,3.9h3.1
		L772.1,874.1z M780.5,889c-0.9-0.9-1.3-2-1.3-3.4c0-1.4,0.5-2.5,1.4-3.4c0.9-0.8,2-1.3,3.3-1.3c1.6,0,2.9,0.7,4,2l2.1-2.4
		c-1.7-1.9-3.8-2.9-6.3-2.9c-2.2,0-4.1,0.8-5.7,2.3c-1.5,1.5-2.3,3.4-2.3,5.7c0,2.3,0.8,4.1,2.3,5.6c1.5,1.5,3.5,2.2,5.8,2.2
		s4.4-1,6.1-2.9l-2.2-2.2c-1.1,1.3-2.4,2-4.1,2C782.4,890.3,781.3,889.9,780.5,889z M802,884.5h-6.1v-6.4h-3.4v15.2h3.4v-6h6.1v6
		h3.4v-15.2H802V884.5z M809.1,878.1v15.2h11.2v-3h-7.8v-3.2h6.8v-2.9h-6.8v-3.1h7.6v-3H809.1z M834.1,887.9l-7.5-9.8h-3.2v15.2h3.4
		v-9.5l7.3,9.5h3.4v-15.2h-3.4V887.9z M847.8,887.3l5.3-9.2h-3.7l-3.3,5.7l-3.3-5.7h-3.7l5.3,9.2v6h3.4V887.3z M854.7,893.3h3.4
		v-15.2h-3.4V893.3z M733.6,896.8V912h11.2v-3H737v-3.2h6.8v-2.9H737v-3.1h7.6v-3H733.6z M758,908.4c-0.8,0.5-1.8,0.7-2.9,0.7
		c-1.2,0-2.2-0.4-3-1.3c-0.9-0.9-1.3-2-1.3-3.5s0.4-2.6,1.3-3.5c0.9-0.9,2-1.3,3.3-1.3c0.7,0,1.3,0.1,1.9,0.3
		c0.6,0.2,1.2,0.6,1.9,1.2l1.8-2.5c-1.6-1.4-3.5-2.2-5.7-2.2c-2.2,0-4.1,0.8-5.6,2.3c-1.5,1.5-2.3,3.4-2.3,5.7
		c0,2.3,0.8,4.1,2.3,5.6c1.5,1.5,3.4,2.2,5.6,2.2c2.7,0,4.8-0.8,6.3-2.5v-5.4H758V908.4z M771,906l5.3-9.2h-3.7l-3.3,5.7l-3.3-5.7
		h-3.7l5.3,9.2v6h3.4V906z M778.1,896.8V912h11.2v-3h-7.8v-3.2h6.8v-2.9h-6.8v-3.1h7.6v-3H778.1z M803.4,899.7v-2.9h-12v2.9h4.3V912
		h3.4v-12.3H803.4z M806.1,896.8V912h11.2v-3h-7.8v-3.2h6.8v-2.9h-6.8v-3.1h7.6v-3H806.1z M834.2,912h3.4v-15.2h-4.6l-3.9,8.4
		l-3.9-8.4h-4.6V912h3.4v-9.6l4.1,8.3h2l4.1-8.3V912z M733.2,921.7V918h-1.1v3.7c0,1,0.3,1.7,0.8,2.2c0.5,0.5,1.2,0.8,2,0.8
		c0.8,0,1.5-0.3,2-0.8c0.5-0.5,0.8-1.2,0.8-2.2V918h-1.1v3.7c0,0.6-0.2,1.1-0.5,1.4c-0.3,0.4-0.7,0.5-1.2,0.5
		c-0.5,0-0.9-0.2-1.2-0.5C733.4,922.8,733.2,922.3,733.2,921.7z M744.4,923l-3.8-4.9h-1.1v6.6h1.1v-4.8l3.7,4.8h1.2V918h-1.1V923z
		 M747.4,924.6h1.1V918h-1.1V924.6z M756,918h-1.2l-2,4.9l-2-4.9h-1.2l2.7,6.6h1.2L756,918z M756.9,918v6.6h4.8v-1.1h-3.6v-1.8h3.2
		v-1h-3.2v-1.8h3.5V918H756.9z M767.8,918.5c-0.4-0.3-1.2-0.5-2.2-0.5h-2.5v6.6h1.1v-2.2h1.5l1.6,2.2h1.4l-1.7-2.4
		c1-0.3,1.4-1,1.4-2.1C768.4,919.4,768.2,918.9,767.8,918.5z M765.6,921.4h-1.4V919h1.4c0.6,0,1,0.1,1.2,0.2
		c0.2,0.2,0.4,0.5,0.4,0.9c0,0.4-0.1,0.7-0.3,0.9C766.7,921.3,766.3,921.4,765.6,921.4z M773,919.1c0.3,0.1,0.6,0.3,0.8,0.4l0.6-0.8
		c-0.3-0.3-0.7-0.4-1.1-0.6c-0.4-0.1-0.8-0.2-1.3-0.2c-0.7,0-1.2,0.2-1.7,0.5c-0.4,0.3-0.7,0.8-0.7,1.4c0,0.6,0.2,1.1,0.6,1.4
		c0.2,0.2,0.4,0.3,0.7,0.4c0.3,0.1,0.6,0.2,1.1,0.3c0.5,0.1,0.8,0.2,1,0.4c0.2,0.1,0.3,0.3,0.3,0.6c0,0.3-0.1,0.5-0.3,0.6
		c-0.2,0.2-0.5,0.2-0.9,0.2c-0.7,0-1.4-0.3-2.1-0.9l-0.7,0.8c0.8,0.7,1.7,1.1,2.8,1.1c0.7,0,1.3-0.2,1.7-0.5
		c0.4-0.4,0.7-0.8,0.7-1.4s-0.2-1-0.5-1.3c-0.3-0.3-0.9-0.5-1.5-0.7c-0.7-0.2-1.1-0.3-1.3-0.5c-0.2-0.1-0.3-0.3-0.3-0.6
		s0.1-0.5,0.3-0.6c0.2-0.1,0.5-0.2,0.8-0.2C772.4,918.9,772.7,919,773,919.1z M776,924.6h1.1V918H776V924.6z M783.4,919v-1h-5.1v1h2
		v5.6h1.1V919H783.4z M787.3,922l2.5-4h-1.2l-1.8,3l-1.8-3h-1.2l2.5,4v2.6h1.1V922z M799.7,921.3c0-1-0.3-1.8-1-2.4
		c-0.7-0.7-1.5-1-2.5-1c-1,0-1.8,0.3-2.5,1c-0.7,0.7-1,1.5-1,2.4s0.3,1.8,1,2.4c0.7,0.7,1.5,1,2.5,1c1,0,1.8-0.3,2.5-1
		C799.4,923.1,799.7,922.3,799.7,921.3z M798.6,921.3c0,0.7-0.2,1.2-0.7,1.7c-0.5,0.5-1,0.7-1.7,0.7s-1.2-0.2-1.7-0.7
		c-0.5-0.5-0.7-1-0.7-1.7c0-0.7,0.2-1.2,0.7-1.7c0.5-0.5,1-0.7,1.7-0.7s1.2,0.2,1.7,0.7C798.3,920.1,798.6,920.6,798.6,921.3z
		 M805.5,919.1l0-1h-4.4v6.6h1.1v-2.7h2.9v-1h-2.9v-1.8H805.5z M814,923.2c-0.4,0.3-0.9,0.4-1.6,0.4c-0.6,0-1.2-0.2-1.6-0.6
		c-0.4-0.4-0.7-1-0.7-1.7c0-0.7,0.2-1.3,0.7-1.7c0.5-0.4,1-0.6,1.7-0.6c0.3,0,0.7,0,0.9,0.1c0.3,0.1,0.5,0.2,0.8,0.5l0.6-0.9
		c-0.6-0.6-1.4-0.8-2.4-0.8s-1.8,0.3-2.4,1c-0.7,0.7-1,1.5-1,2.5s0.3,1.8,1,2.4c0.7,0.6,1.5,1,2.5,1c1.2,0,2.1-0.3,2.7-1v-2.3H814
		V923.2z M819.1,922l2.5-4h-1.2l-1.8,3l-1.8-3h-1.2l2.5,4v2.6h1.1V922z M828.9,921.3c0-1-0.3-1.8-1-2.4c-0.7-0.7-1.5-1-2.5-1
		c-1,0-1.8,0.3-2.5,1c-0.7,0.7-1,1.5-1,2.4s0.3,1.8,1,2.4c0.7,0.7,1.5,1,2.5,1c1,0,1.8-0.3,2.5-1
		C828.6,923.1,828.9,922.3,828.9,921.3z M827.8,921.3c0,0.7-0.2,1.2-0.7,1.7c-0.5,0.5-1,0.7-1.7,0.7s-1.2-0.2-1.7-0.7
		c-0.5-0.5-0.7-1-0.7-1.7c0-0.7,0.2-1.2,0.7-1.7c0.5-0.5,1-0.7,1.7-0.7s1.2,0.2,1.7,0.7C827.6,920.1,827.8,920.6,827.8,921.3z
		 M835,918.5c-0.4-0.3-1.2-0.5-2.2-0.5h-2.5v6.6h1.1v-2.2h1.5l1.6,2.2h1.4l-1.7-2.4c1-0.3,1.4-1,1.4-2.1
		C835.6,919.4,835.4,918.9,835,918.5z M832.8,921.4h-1.4V919h1.4c0.6,0,1,0.1,1.2,0.2c0.2,0.2,0.4,0.5,0.4,0.9
		c0,0.4-0.1,0.7-0.3,0.9C833.9,921.3,833.5,921.4,832.8,921.4z M713.4,878.7v-2.5c0-0.2-0.2-0.3-0.3-0.3h-11.2
		c-0.2,0-0.3,0.2-0.3,0.3v2.5c0,0.2,0.2,0.3,0.3,0.3h11.2C713.3,879,713.4,878.8,713.4,878.7z M713.4,884.4v-2.5
		c0-0.2-0.2-0.3-0.3-0.3h-11.2c-0.2,0-0.3,0.2-0.3,0.3v2.5c0,0.2,0.2,0.3,0.3,0.3h11.2C713.3,884.7,713.4,884.5,713.4,884.4z
		 M713.4,890.1v-2.5c0-0.2-0.2-0.3-0.3-0.3h-11.2c-0.2,0-0.3,0.2-0.3,0.3v2.5c0,0.2,0.2,0.3,0.3,0.3h11.2
		C713.3,890.4,713.4,890.3,713.4,890.1z M713.4,895.8v-2.5c0-0.2-0.2-0.3-0.3-0.3h-11.2c-0.2,0-0.3,0.2-0.3,0.3v2.5
		c0,0.2,0.2,0.3,0.3,0.3h11.2C713.3,896.1,713.4,896,713.4,895.8z M713.4,901.5V899c0-0.2-0.2-0.3-0.3-0.3h-11.2
		c-0.2,0-0.3,0.2-0.3,0.3v2.5c0,0.2,0.2,0.3,0.3,0.3h11.2C713.3,901.8,713.4,901.7,713.4,901.5z M713.4,907.2v-2.5
		c0-0.2-0.2-0.3-0.3-0.3h-11.2c-0.2,0-0.3,0.2-0.3,0.3v2.5c0,0.2,0.2,0.3,0.3,0.3h11.2C713.3,907.5,713.4,907.4,713.4,907.2z
		 M713.4,912.9v-2.5c0-0.2-0.2-0.3-0.3-0.3h-11.2c-0.2,0-0.3,0.2-0.3,0.3v2.5c0,0.2,0.2,0.3,0.3,0.3h11.2
		C713.3,913.2,713.4,913.1,713.4,912.9z M713.4,918.6v-2.5c0-0.2-0.2-0.3-0.3-0.3h-11.2c-0.2,0-0.3,0.2-0.3,0.3v2.5
		c0,0.2,0.2,0.3,0.3,0.3h11.2C713.3,918.9,713.4,918.8,713.4,918.6z M713.4,924.3v-2.5c0-0.2-0.2-0.3-0.3-0.3h-11.2
		c-0.2,0-0.3,0.2-0.3,0.3v2.5c0,0.2,0.2,0.3,0.3,0.3h11.2C713.3,924.6,713.4,924.5,713.4,924.3z M695.9,912.9v-2.5
		c0-0.2-0.2-0.3-0.3-0.3h-42.5c-0.2,0-0.3,0.2-0.3,0.3v2.5c0,0.2,0.2,0.3,0.3,0.3h42.5C695.7,913.2,695.9,913.1,695.9,912.9z
		 M695.9,924.3v-2.5c0-0.2-0.2-0.3-0.3-0.3h-42.5c-0.2,0-0.3,0.2-0.3,0.3v2.5c0,0.2,0.2,0.3,0.3,0.3h42.5
		C695.7,924.6,695.9,924.5,695.9,924.3z M827.1,916.1l-0.8-0.4l-0.8,1.6h0.8L827.1,916.1z M825.6,916l-0.8-0.3l-0.8,1.6h0.8
		L825.6,916z M858.5,924.3v-2.5c0-0.2-0.2-0.3-0.3-0.3H843c-0.2,0-0.3,0.2-0.3,0.3v2.5c0,0.2,0.2,0.3,0.3,0.3h15.2
		C858.3,924.6,858.5,924.5,858.5,924.3z"/>
	<path id="sze_vilagos__x23_50ADC9" class="st1" d="M695.8,918.5V916c0-0.2-0.2-0.3-0.3-0.3h-29.4c-0.2,0-0.3,0.2-0.3,0.3v2.5
		c0,0.2,0.2,0.3,0.3,0.3h29.4C695.7,918.8,695.8,918.7,695.8,918.5z"/>
	<path id="JKK_logo" class="st2" d="M58,926.2h1.1c0.4,0,0.7-0.2,0.7-0.6c0-0.4-0.2-0.6-0.7-0.6H58V926.2z M57.7,924.7h1.4
		c0.5,0,0.9,0.2,0.9,0.8c0,0.4-0.2,0.7-0.6,0.8v0c0.4,0.1,0.5,0.3,0.5,0.7c0,0.2,0,0.6,0.1,0.8h-0.3c-0.1-0.1-0.1-0.3-0.1-0.5
		c0-0.4-0.1-0.9-0.6-0.9H58v1.4h-0.3V924.7z M60.6,927.8h2.1v-0.3h-1.9v-1.2h1.7v-0.3h-1.7v-1.1h1.8v-0.3h-2.1V927.8z M62.9,926.8
		c0,0.7,0.5,1.1,1.2,1.1c1.1,0,1.2-0.7,1.2-0.9c0-0.5-0.4-0.7-0.8-0.8l-0.7-0.2c-0.3-0.1-0.5-0.2-0.5-0.5c0-0.5,0.4-0.6,0.8-0.6
		c0.4,0,0.8,0.2,0.8,0.7h0.3c0-0.6-0.5-1-1.1-1c-0.9,0-1.1,0.6-1.1,0.9c0,0.5,0.3,0.7,0.7,0.7l0.7,0.2c0.3,0.1,0.6,0.2,0.6,0.6
		c0,0.4-0.5,0.6-0.8,0.6c-0.6,0-1-0.2-1-0.8H62.9z M65.7,927.8h2.1v-0.3H66v-1.2h1.7v-0.3H66v-1.1h1.8v-0.3h-2.1V927.8z M68.7,926.6
		h1.2l-0.6-1.6L68.7,926.6z M69.2,924.7h0.3l1.2,3.1h-0.3l-0.4-1h-1.4l-0.4,1h-0.3L69.2,924.7z M71.2,926.2h1.1
		c0.4,0,0.7-0.2,0.7-0.6c0-0.4-0.2-0.6-0.7-0.6h-1.1V926.2z M70.9,924.7h1.4c0.5,0,0.9,0.2,0.9,0.8c0,0.4-0.2,0.7-0.6,0.8v0
		c0.4,0.1,0.5,0.3,0.5,0.7c0,0.2,0,0.6,0.1,0.8H73c-0.1-0.1-0.1-0.3-0.1-0.5c0-0.4-0.1-0.9-0.6-0.9h-1.1v1.4h-0.3V924.7z
		 M76.3,925.6c-0.1-0.6-0.7-1-1.2-1c-1,0-1.5,0.8-1.5,1.6c0,0.8,0.5,1.6,1.5,1.6c0.7,0,1.2-0.5,1.3-1.2h-0.3c-0.1,0.5-0.4,1-1,1
		c-0.8,0-1.2-0.7-1.2-1.4c0-0.7,0.3-1.4,1.2-1.4c0.4,0,0.8,0.3,0.9,0.7H76.3z M76.8,927.8h0.3v-1.5h1.8v1.5h0.3v-3.1h-0.3v1.3h-1.8
		v-1.3h-0.3V927.8z M83.5,925.6c-0.1-0.6-0.7-1-1.2-1c-1,0-1.5,0.8-1.5,1.6c0,0.8,0.5,1.6,1.5,1.6c0.7,0,1.2-0.5,1.3-1.2h-0.3
		c-0.1,0.5-0.4,1-1,1c-0.8,0-1.2-0.7-1.2-1.4c0-0.7,0.3-1.4,1.2-1.4c0.4,0,0.8,0.3,0.9,0.7H83.5z M83.9,927.8h2.1v-0.3h-1.9v-1.2
		h1.7v-0.3h-1.7v-1.1H86v-0.3h-2.1V927.8z M86.4,927.8h0.3v-2.6h0l1.8,2.6h0.3v-3.1h-0.3v2.6h0l-1.8-2.6h-0.3V927.8z M89.1,924.9
		h1.1v2.8h0.3v-2.8h1.1v-0.3h-2.4V924.9z M91.8,927.8h2.1v-0.3h-1.9v-1.2h1.7v-0.3h-1.7v-1.1h1.8v-0.3h-2.1V927.8z M94.6,926.2h1.1
		c0.4,0,0.7-0.2,0.7-0.6c0-0.4-0.2-0.6-0.7-0.6h-1.1V926.2z M94.3,924.7h1.4c0.5,0,0.9,0.2,0.9,0.8c0,0.4-0.2,0.7-0.6,0.8v0
		c0.4,0.1,0.5,0.3,0.5,0.7c0,0.2,0,0.6,0.1,0.8h-0.3c-0.1-0.1-0.1-0.3-0.1-0.5c0-0.4-0.1-0.9-0.6-0.9h-1.1v1.4h-0.3V924.7z
		 M99.6,927.6c0.8,0,1.2-0.7,1.2-1.4c0-0.7-0.3-1.4-1.2-1.4c-0.8,0-1.2,0.7-1.2,1.4C98.4,926.9,98.8,927.6,99.6,927.6 M99.6,924.6
		c1,0,1.4,0.8,1.4,1.6c0,0.8-0.5,1.6-1.4,1.6c-1,0-1.5-0.8-1.5-1.6C98.1,925.4,98.6,924.6,99.6,924.6 M101.4,927.8h0.3v-1.5h1.5
		v-0.3h-1.5v-1.1h1.7v-0.3h-2V927.8z M105.6,927.8h0.6l1-3.1h-0.5l-0.8,2.4h0l-0.8-2.4h-0.6L105.6,927.8z M107.4,927.8h2.2v-0.5H108
		v-0.9h1.5V926H108v-0.8h1.7v-0.5h-2.2V927.8z M110,927.8h0.5v-1.4h1.4v1.4h0.5v-3.1h-0.5v1.2h-1.4v-1.2H110V927.8z M112.9,927.8
		h0.5v-3.1h-0.5V927.8z M116.6,925.7c-0.1-0.7-0.6-1.1-1.3-1.1c-0.9,0-1.5,0.7-1.5,1.6c0,0.9,0.6,1.6,1.5,1.6c0.7,0,1.3-0.5,1.3-1.2
		h-0.5c0,0.4-0.3,0.8-0.8,0.8c-0.7,0-0.9-0.6-0.9-1.2c0-0.6,0.3-1.2,0.9-1.2c0.4,0,0.7,0.3,0.8,0.6H116.6z M116.9,927.8h2.1v-0.5
		h-1.6v-2.6h-0.5V927.8z M119.3,927.8h2.2v-0.5h-1.7v-0.9h1.5V926h-1.5v-0.8h1.7v-0.5h-2.2V927.8z M123.1,927.8h0.5v-3.1h-0.5V927.8
		z M124,927.8h0.5v-2.3h0l1.4,2.3h0.6v-3.1H126v2.3h0l-1.4-2.3H124V927.8z M127.6,927.3h0.5c0.8,0,1-0.5,1-1.1c0-0.6-0.2-1.1-1-1.1
		h-0.5V927.3z M127,924.7h1.3c0.9,0,1.4,0.7,1.4,1.5c0,0.8-0.4,1.5-1.4,1.5H127V924.7z M129.9,926.7c0,0.8,0.5,1.2,1.3,1.2
		c0.8,0,1.3-0.4,1.3-1.2v-2h-0.5v1.8c0,0.4,0,0.9-0.7,0.9c-0.7,0-0.7-0.5-0.7-0.9v-1.8h-0.5V926.7z M132.6,926.7
		c0,0.8,0.6,1.1,1.3,1.1c0.6,0,1.2-0.3,1.2-1c0-0.3-0.2-0.7-0.6-0.8c-0.2,0-0.8-0.2-0.9-0.2c-0.2-0.1-0.4-0.2-0.4-0.4
		c0-0.3,0.3-0.4,0.6-0.4c0.4,0,0.6,0.1,0.7,0.5h0.5c0-0.6-0.5-1-1.2-1c-0.6,0-1.1,0.3-1.1,0.9c0,0.3,0.2,0.6,0.7,0.8
		c0.4,0.1,0.7,0.2,0.9,0.3c0.1,0,0.3,0.1,0.3,0.4c0,0.2-0.2,0.5-0.7,0.5c-0.4,0-0.8-0.2-0.8-0.7H132.6z M135,925.2h1v2.6h0.5v-2.6h1
		v-0.5H135V925.2z M138.3,926.1h0.9c0.3,0,0.5-0.2,0.5-0.5c0-0.4-0.3-0.5-0.5-0.5h-0.9V926.1z M137.8,924.7h1.5c0.7,0,1,0.3,1,0.8
		c0,0.6-0.4,0.7-0.5,0.8v0c0.2,0,0.5,0.2,0.5,0.7c0,0.4,0.1,0.7,0.2,0.8h-0.6c-0.1-0.1-0.1-0.3-0.1-0.5c0-0.6-0.1-0.8-0.6-0.8h-0.8
		v1.3h-0.5V924.7z M141.4,927.8h0.5v-1.2l1.1-1.9h-0.6l-0.8,1.4l-0.8-1.4h-0.6l1.2,1.9V927.8z M74,878.2c0,4.7,0.1,15.5,0,21.1
		c0,7.4-1.3,11.8-2.6,14.4h14v-35.5H74z M70.3,899.3c0-5.6,0-16.4,0-21.1H57.7v35.5h9.1C67.6,913,70.3,910,70.3,899.3 M60.4,917
		h-0.8v3c0,0.5-0.1,0.8-0.6,0.8c-0.5,0-0.6-0.3-0.6-0.8v-0.2h-0.8v0.2c0,0.8,0.4,1.4,1.3,1.4c1.2,0,1.4-0.7,1.4-1.5V917z
		 M62.9,915.8h0.8l-0.9,0.9h-0.5L62.9,915.8z M62.1,919.6h1.3l-0.6-1.9h0L62.1,919.6z M62.3,917h0.8l1.7,4.3H64l-0.4-1.1h-1.7
		l-0.4,1.1h-0.8L62.3,917z M65.9,919h1.2c0.5,0,0.7-0.2,0.7-0.7c0-0.6-0.4-0.7-0.8-0.7h-1.2V919z M65.1,917h2.1c1,0,1.4,0.4,1.4,1.2
		c0,0.8-0.6,1-0.7,1.1v0c0.3,0,0.6,0.2,0.6,0.9c0,0.5,0.1,1,0.2,1.1H68c-0.1-0.2-0.1-0.4-0.1-0.6c0-0.8-0.2-1.1-0.9-1.1h-1.1v1.8
		h-0.8V917z M69.2,921.4H70V918h0l1.2,3.3h0.6L73,918h0v3.3h0.7V917h-1.1l-1.2,3.4h0l-1.2-3.4h-1.1V921.4z M77.1,915.8H78l-0.9,0.9
		h-0.5L77.1,915.8z M75.9,915.8h0.8l-0.9,0.9h-0.5L75.9,915.8z M74.5,917h0.8v2.5c0,0.6,0,1.3,1,1.3c1,0,1-0.7,1-1.3V917H78v2.8
		c0,1.1-0.7,1.7-1.8,1.7c-1.1,0-1.8-0.6-1.8-1.7V917z M78.8,921.4h0.8V917h-0.8V921.4z M81.1,919.1h1.1c0.3,0,0.8-0.2,0.8-0.7
		c0-0.6-0.3-0.7-0.7-0.7h-1.1V919.1z M80.3,917h1.9c1.2,0,1.5,0.8,1.5,1.3c0,0.5-0.2,1.3-1.5,1.3h-1.1v1.7h-0.8V917z M84.7,919.6H86
		l-0.6-1.9h0L84.7,919.6z M85,917h0.8l1.7,4.3h-0.8l-0.4-1.1h-1.7l-0.4,1.1h-0.8L85,917z M88.5,919h1.2c0.5,0,0.7-0.2,0.7-0.7
		c0-0.6-0.4-0.7-0.8-0.7h-1.2V919z M87.7,917h2.1c1,0,1.4,0.4,1.4,1.2c0,0.8-0.6,1-0.7,1.1v0c0.3,0,0.6,0.2,0.6,0.9
		c0,0.5,0.1,1,0.2,1.1h-0.8c-0.1-0.2-0.1-0.4-0.1-0.6c0-0.8-0.2-1.1-0.9-1.1h-1.1v1.8h-0.8V917z M91.9,921.4h0.8V917h-0.8V921.4z
		 M95,921.4h0.4v-1.5l0.8-0.8l1.8,2.3h0.5l-2-2.5l1.9-1.8h-0.6l-2.5,2.3V917H95V921.4z M98.7,919.8c0,0.9,0.5,1.6,1.7,1.6
		c1.2,0,1.7-0.8,1.7-1.6V917h-0.4v2.7c0,1-0.5,1.4-1.3,1.4c-0.8,0-1.3-0.4-1.3-1.4V917h-0.4V919.8z M102.3,917.4h1.5v4h0.4v-4h1.5
		V917h-3.4V917.4z M106.2,919.7h1.7l-0.8-2.2L106.2,919.7z M106.9,917h0.5l1.7,4.3h-0.4l-0.5-1.3h-2l-0.5,1.3h-0.4L106.9,917z
		 M108.5,917.4h1.5v4h0.4v-4h1.5V917h-3.4V917.4z M114.1,916.6h-0.3l0.6-0.9h0.5L114.1,916.6z M114,921.1c1.1,0,1.6-1,1.6-1.9
		c0-0.9-0.5-1.9-1.6-1.9c-1.1,0-1.6,1-1.6,1.9C112.4,920.1,112.8,921.1,114,921.1 M114,916.9c1.4,0,2,1.1,2,2.3c0,1.2-0.7,2.3-2,2.3
		c-1.4,0-2-1.1-2-2.3C111.9,918,112.6,916.9,114,916.9 M116.5,921.4h0.4v-1.5l0.8-0.8l1.8,2.3h0.5l-2-2.5l1.9-1.8h-0.6l-2.5,2.3V917
		h-0.4V921.4z M122.5,915.9h0.4v0.6h-0.4V915.9z M121.4,915.9h0.4v0.6h-0.4V915.9z M122.2,921.1c1.1,0,1.6-1,1.6-1.9
		c0-0.9-0.5-1.9-1.6-1.9c-1.1,0-1.6,1-1.6,1.9C120.5,920.1,121,921.1,122.2,921.1 M122.2,916.9c1.4,0,2,1.1,2,2.3
		c0,1.2-0.7,2.3-2,2.3c-1.4,0-2-1.1-2-2.3C120.1,918,120.8,916.9,122.2,916.9 M124.5,917.4h2.7l-2.8,3.6v0.4h3.4V921h-2.9l2.8-3.6
		V917h-3.1V917.4z M128.5,919.2h1.4c0.6,0,1-0.3,1-0.9c0-0.6-0.4-0.9-1-0.9h-1.4V919.2z M128.1,917h1.9c0.8,0,1.3,0.5,1.3,1.2
		c0,0.8-0.5,1.2-1.3,1.2h-1.5v1.9h-0.4V917z M133.6,921.1c1.1,0,1.6-1,1.6-1.9c0-0.9-0.5-1.9-1.6-1.9c-1.1,0-1.6,1-1.6,1.9
		C131.9,920.1,132.4,921.1,133.6,921.1 M133.6,916.9c1.4,0,2,1.1,2,2.3c0,1.2-0.7,2.3-2,2.3c-1.4,0-2-1.1-2-2.3
		C131.5,918,132.2,916.9,133.6,916.9 M136.1,921.4h0.4v-3.7h0l2.5,3.7h0.5V917h-0.4v3.7h0l-2.5-3.7h-0.5V921.4z M139.8,917.4h1.5v4
		h0.4v-4h1.5V917h-3.4V917.4z"/>
	<path id="JKK" class="st1" d="M108,878.2l-10.1,17.1l10.2,18.4h6.1v-35.5H108z M93.7,895.3l10-17.1H86.6v35.5h17.3L93.7,895.3z
		 M122.5,895.3l9.9-17.1h-16.8v35.5h17L122.5,895.3z M136.6,878.2l-9.9,17.1l10,18.4h6.4v-35.5H136.6z"/>
	<circle class="st1" cx="779" cy="277.2" r="6.3"/>
</g>
<g id="feliratok">
	<g>
		<path class="st2" d="M758,97.1h2.8v4.5c-1.2,1.4-3,2.1-5.2,2.1c-1.8,0-3.4-0.6-4.7-1.8s-1.9-2.8-1.9-4.6c0-1.9,0.6-3.4,1.9-4.7
			c1.3-1.2,2.8-1.9,4.6-1.9c1.8,0,3.4,0.6,4.7,1.8l-1.5,2.1c-0.6-0.5-1.1-0.8-1.6-1c-0.5-0.2-1-0.3-1.5-0.3c-1.1,0-2,0.4-2.7,1.1
			c-0.7,0.7-1.1,1.7-1.1,2.9s0.4,2.1,1.1,2.9c0.7,0.7,1.5,1.1,2.5,1.1c1,0,1.8-0.2,2.4-0.6V97.1z"/>
		<path class="st2" d="M772,92.1c0.9,0.8,1.3,1.9,1.3,3.5c0,1.6-0.5,2.7-1.4,3.4c-0.9,0.7-2.3,1.1-4.1,1.1h-1.7v3.5h-2.8V90.9h4.4
			C769.7,90.9,771.1,91.3,772,92.1z M769.9,97c0.3-0.4,0.5-0.9,0.5-1.7c0-0.7-0.2-1.2-0.7-1.5c-0.4-0.3-1.1-0.5-2-0.5h-1.6v4.2h1.9
			C768.9,97.6,769.6,97.4,769.9,97z"/>
		<path class="st2" d="M778.4,93.4c-0.3,0.2-0.4,0.5-0.4,0.9c0,0.4,0.2,0.7,0.5,0.9c0.3,0.2,1.1,0.5,2.3,0.8
			c1.2,0.3,2.1,0.7,2.8,1.3s1,1.4,1,2.6s-0.4,2-1.3,2.7c-0.8,0.7-2,1.1-3.3,1.1c-2,0-3.8-0.7-5.4-2.2l1.7-2.1
			c1.4,1.2,2.6,1.8,3.8,1.8c0.5,0,0.9-0.1,1.2-0.3s0.4-0.5,0.4-0.9c0-0.4-0.2-0.7-0.5-0.9c-0.3-0.2-0.9-0.4-1.9-0.7
			c-1.5-0.3-2.5-0.8-3.2-1.4c-0.7-0.6-1-1.4-1-2.6c0-1.2,0.4-2.1,1.3-2.8s1.9-1,3.2-1c0.8,0,1.7,0.1,2.5,0.4
			c0.8,0.3,1.6,0.7,2.2,1.2l-1.4,2.1c-1.1-0.8-2.2-1.2-3.4-1.2C779.1,93.1,778.7,93.2,778.4,93.4z"/>
		<path class="st2" d="M798.2,89h2.6l-7.6,16.5h-2.5L798.2,89z"/>
		<path class="st2" d="M815.7,97.1h2.8v4.5c-1.2,1.4-3,2.1-5.2,2.1c-1.8,0-3.4-0.6-4.7-1.8s-1.9-2.8-1.9-4.6c0-1.9,0.6-3.4,1.9-4.7
			s2.8-1.9,4.6-1.9s3.4,0.6,4.7,1.8l-1.5,2.1c-0.6-0.5-1.1-0.8-1.6-1c-0.5-0.2-1-0.3-1.5-0.3c-1.1,0-2,0.4-2.7,1.1
			c-0.7,0.7-1.1,1.7-1.1,2.9s0.4,2.1,1.1,2.9s1.5,1.1,2.5,1.1c1,0,1.8-0.2,2.4-0.6V97.1z"/>
		<path class="st2" d="M829.8,90.9h2.8v12.6h-2.8l-6-7.9v7.9H821V90.9h2.6l6.2,8.1V90.9z"/>
		<path class="st2" d="M838.7,93.4c-0.3,0.2-0.4,0.5-0.4,0.9c0,0.4,0.2,0.7,0.5,0.9c0.3,0.2,1.1,0.5,2.3,0.8
			c1.2,0.3,2.1,0.7,2.8,1.3s1,1.4,1,2.6s-0.4,2-1.3,2.7c-0.8,0.7-2,1.1-3.3,1.1c-2,0-3.8-0.7-5.4-2.2l1.7-2.1
			c1.4,1.2,2.6,1.8,3.8,1.8c0.5,0,0.9-0.1,1.2-0.3s0.4-0.5,0.4-0.9c0-0.4-0.2-0.7-0.5-0.9c-0.3-0.2-0.9-0.4-1.9-0.7
			c-1.5-0.3-2.5-0.8-3.2-1.4c-0.7-0.6-1-1.4-1-2.6c0-1.2,0.4-2.1,1.3-2.8s1.9-1,3.2-1c0.8,0,1.7,0.1,2.5,0.4
			c0.8,0.3,1.6,0.7,2.2,1.2l-1.4,2.1c-1.1-0.8-2.2-1.2-3.4-1.2C839.3,93.1,838.9,93.2,838.7,93.4z"/>
		<path class="st2" d="M850.2,93.4c-0.3,0.2-0.4,0.5-0.4,0.9c0,0.4,0.2,0.7,0.5,0.9c0.3,0.2,1.1,0.5,2.3,0.8s2.1,0.7,2.8,1.3
			c0.7,0.6,1,1.4,1,2.6s-0.4,2-1.3,2.7c-0.8,0.7-2,1.1-3.3,1.1c-2,0-3.8-0.7-5.4-2.2l1.7-2.1c1.4,1.2,2.6,1.8,3.8,1.8
			c0.5,0,0.9-0.1,1.2-0.3s0.4-0.5,0.4-0.9c0-0.4-0.2-0.7-0.5-0.9c-0.3-0.2-0.9-0.4-1.9-0.7c-1.5-0.3-2.5-0.8-3.2-1.4
			c-0.7-0.6-1-1.4-1-2.6c0-1.2,0.4-2.1,1.3-2.8c0.9-0.6,1.9-1,3.2-1c0.8,0,1.7,0.1,2.5,0.4s1.6,0.7,2.2,1.2l-1.4,2.1
			c-1.1-0.8-2.2-1.2-3.4-1.2C850.8,93.1,850.4,93.2,850.2,93.4z"/>
		<path class="st2" d="M684.3,129.1c-0.8,0-1.4,0.3-1.8,0.8c-0.4,0.5-0.7,1.2-0.8,2.1c0.8-0.5,1.6-0.8,2.5-0.8
			c1.2,0,2.2,0.4,2.9,1.2c0.8,0.8,1.2,1.8,1.2,3.1c0,1.3-0.4,2.3-1.3,3.1s-1.9,1.2-3.2,1.2c-0.9,0-1.7-0.2-2.3-0.5
			c-0.7-0.3-1.2-0.8-1.5-1.4c-0.7-1.2-1.1-2.7-1.1-4.5c0-1.2,0.1-2.2,0.4-3c0.3-0.9,0.7-1.6,1.2-2.1c1-1,2.1-1.5,3.6-1.5
			c0.6,0,1.1,0.1,1.7,0.3s0.9,0.4,1.2,0.5c0.3,0.2,0.6,0.4,1,0.7l-1.3,2c-0.1-0.1-0.2-0.2-0.3-0.3c-0.1-0.1-0.4-0.3-0.8-0.5
			C685.1,129.2,684.7,129.1,684.3,129.1z M683.9,133.6c-0.6,0-1,0.2-1.4,0.5s-0.6,0.8-0.6,1.3c0,0.5,0.2,1,0.5,1.4
			c0.4,0.4,0.8,0.6,1.3,0.6s1-0.2,1.4-0.5c0.4-0.3,0.5-0.8,0.5-1.3c0-0.5-0.2-1-0.5-1.4C684.9,133.8,684.5,133.6,683.9,133.6z"/>
		<path class="st2" d="M694.9,134.1v-2.2h2.7v2.2h1.4v2.4h-1.4v3h-2.7v-3h-5.1v-2.1l4.5-7.4h3.1l-4.3,7.1H694.9z"/>
		<path class="st2" d="M711.9,137c1.4,0,2.5-0.5,3.4-1.6l1.8,1.9c-1.4,1.6-3.1,2.4-5,2.4c-1.9,0-3.5-0.6-4.8-1.8s-1.9-2.8-1.9-4.6
			c0-1.9,0.6-3.4,1.9-4.7c1.3-1.2,2.8-1.9,4.7-1.9c2.1,0,3.8,0.8,5.2,2.4l-1.7,2c-0.9-1.1-2-1.7-3.3-1.7c-1.1,0-2,0.3-2.7,1
			s-1.1,1.6-1.1,2.8c0,1.2,0.4,2.1,1.1,2.8S710.9,137,711.9,137z"/>
		<path class="st2" d="M727.1,126.9h2.8v12.6h-2.8v-5h-5v5h-2.8v-12.6h2.8v5.3h5V126.9z"/>
		<path class="st2" d="M742,139.5l-1.2-2.7h-5.3l-1.2,2.7h-3l5.4-12.6h2.7l5.4,12.6H742z M738.2,130.7l-1.6,3.7h3.2L738.2,130.7z"/>
		<path class="st2" d="M755.2,126.9h2.8v12.6h-2.8l-6-7.9v7.9h-2.8v-12.6h2.6l6.2,8.1V126.9z"/>
		<path class="st2" d="M769.9,126.9h2.8v12.6h-2.8l-6-7.9v7.9h-2.8v-12.6h2.6l6.2,8.1V126.9z"/>
		<path class="st2" d="M784.9,126.9v2.5h-6.3v2.6h5.6v2.4h-5.6v2.6h6.5v2.5h-9.3v-12.6H784.9z"/>
		<path class="st2" d="M787.6,139.5v-12.6h2.8V137h5.4v2.5H787.6z"/>
		<path class="st2" d="M802.6,139.5v-12.6h2.8V137h5.4v2.5H802.6z"/>
		<path class="st2" d="M812.8,126.9h2.8v12.6h-2.8V126.9z"/>
		<path class="st2" d="M828.3,128.6c1.2,1.1,1.8,2.6,1.8,4.6c0,2-0.6,3.5-1.8,4.6s-3,1.7-5.4,1.7h-4.3v-12.6h4.4
			C825.4,126.9,827.1,127.5,828.3,128.6z M826.3,136.1c0.7-0.6,1-1.6,1-2.8c0-1.2-0.3-2.2-1-2.9c-0.7-0.7-1.7-1-3.2-1h-1.6v7.6h1.8
			C824.6,137,825.6,136.7,826.3,136.1z"/>
		<path class="st2" d="M841.2,139.5l-1.2-2.7h-5.3l-1.2,2.7h-3l5.4-12.6h2.7l5.4,12.6H841.2z M837.4,130.7l-1.6,3.7h3.2L837.4,130.7
			z"/>
		<path class="st2" d="M855.8,131.1c0,2-0.8,3.3-2.4,3.9l3.2,4.5h-3.5l-2.8-4h-1.9v4h-2.8v-12.6h4.8c2,0,3.4,0.3,4.2,1
			C855.4,128.6,855.8,129.6,855.8,131.1z M852.4,132.6c0.3-0.3,0.5-0.8,0.5-1.5c0-0.7-0.2-1.1-0.5-1.4c-0.4-0.3-1-0.4-1.9-0.4h-2.1
			v3.7h2.1C851.4,133.1,852.1,132.9,852.4,132.6z"/>
		<path class="st2" d="M681.8,162.9h5.1v12.6h-2.7v-10.2h-2.4V162.9z"/>
		<path class="st2" d="M694.9,165.1c-0.8,0-1.4,0.3-1.8,0.8s-0.7,1.2-0.8,2.1c0.8-0.5,1.6-0.8,2.5-0.8c1.2,0,2.2,0.4,2.9,1.2
			c0.8,0.8,1.2,1.8,1.2,3.1c0,1.3-0.4,2.3-1.3,3.1c-0.8,0.8-1.9,1.2-3.2,1.2c-0.9,0-1.7-0.2-2.3-0.5c-0.7-0.3-1.2-0.8-1.5-1.4
			c-0.7-1.2-1.1-2.7-1.1-4.5c0-1.2,0.1-2.2,0.4-3s0.7-1.6,1.2-2.1c1-1,2.1-1.5,3.6-1.5c0.6,0,1.1,0.1,1.7,0.3s0.9,0.4,1.2,0.5
			c0.3,0.2,0.6,0.4,1,0.7l-1.3,2c-0.1-0.1-0.2-0.2-0.3-0.3c-0.1-0.1-0.4-0.3-0.8-0.5S695.2,165.1,694.9,165.1z M694.5,169.6
			c-0.6,0-1,0.2-1.4,0.5s-0.6,0.8-0.6,1.3c0,0.5,0.2,1,0.5,1.4c0.4,0.4,0.8,0.6,1.4,0.6s1-0.2,1.3-0.5c0.4-0.3,0.5-0.8,0.5-1.3
			c0-0.5-0.2-1-0.5-1.4C695.5,169.8,695,169.6,694.5,169.6z"/>
		<path class="st2" d="M711.9,173c1.4,0,2.5-0.5,3.4-1.6l1.8,1.9c-1.4,1.6-3.1,2.4-5,2.4c-1.9,0-3.5-0.6-4.8-1.8s-1.9-2.8-1.9-4.6
			c0-1.9,0.6-3.4,1.9-4.7c1.3-1.2,2.8-1.9,4.7-1.9c2.1,0,3.8,0.8,5.2,2.4l-1.7,2c-0.9-1.1-2-1.7-3.3-1.7c-1.1,0-2,0.3-2.7,1
			s-1.1,1.6-1.1,2.8c0,1.2,0.4,2.1,1.1,2.8S710.9,173,711.9,173z"/>
		<path class="st2" d="M727.1,162.9h2.8v12.6h-2.8v-5h-5v5h-2.8v-12.6h2.8v5.3h5V162.9z"/>
		<path class="st2" d="M742,175.5l-1.2-2.7h-5.3l-1.2,2.7h-3l5.4-12.6h2.7l5.4,12.6H742z M738.2,166.7l-1.6,3.7h3.1L738.2,166.7z"/>
		<path class="st2" d="M755.2,162.9h2.8v12.6h-2.8l-6-7.9v7.9h-2.8v-12.6h2.6l6.2,8.1V162.9z"/>
		<path class="st2" d="M769.9,162.9h2.8v12.6h-2.8l-6-7.9v7.9h-2.8v-12.6h2.6l6.2,8.1V162.9z"/>
		<path class="st2" d="M784.9,162.9v2.5h-6.3v2.6h5.6v2.4h-5.6v2.6h6.5v2.5h-9.3v-12.6H784.9z"/>
		<path class="st2" d="M787.6,175.5v-12.6h2.8V173h5.4v2.5H787.6z"/>
		<path class="st2" d="M802.6,175.5v-12.6h2.8V173h5.4v2.5H802.6z"/>
		<path class="st2" d="M812.8,162.9h2.8v12.6h-2.8V162.9z"/>
		<path class="st2" d="M828.3,164.6c1.2,1.1,1.8,2.6,1.8,4.6c0,2-0.6,3.5-1.8,4.6s-3,1.7-5.4,1.7h-4.3v-12.6h4.4
			C825.4,162.9,827.1,163.5,828.3,164.6z M826.3,172.1c0.7-0.6,1-1.6,1-2.8c0-1.2-0.3-2.2-1-2.9c-0.7-0.7-1.7-1-3.2-1h-1.6v7.6h1.8
			C824.6,173,825.6,172.7,826.3,172.1z"/>
		<path class="st2" d="M841.2,175.5l-1.2-2.7h-5.3l-1.2,2.7h-3l5.4-12.6h2.7l5.4,12.6H841.2z M837.4,166.7l-1.6,3.7h3.2L837.4,166.7
			z"/>
		<path class="st2" d="M855.8,167.1c0,2-0.8,3.3-2.4,3.9l3.2,4.5h-3.5l-2.8-4h-1.9v4h-2.8v-12.6h4.8c2,0,3.4,0.3,4.2,1
			C855.4,164.6,855.8,165.6,855.8,167.1z M852.4,168.6c0.3-0.3,0.5-0.8,0.5-1.5c0-0.7-0.2-1.1-0.5-1.4c-0.4-0.3-1-0.4-1.9-0.4h-2.1
			v3.7h2.1C851.4,169.1,852.1,168.9,852.4,168.6z"/>
		<path class="st2" d="M701.3,201.4c-0.3,0.2-0.4,0.5-0.4,0.9c0,0.4,0.2,0.7,0.5,0.9c0.3,0.2,1.1,0.5,2.3,0.8
			c1.2,0.3,2.1,0.7,2.8,1.3s1,1.4,1,2.6s-0.4,2-1.3,2.7c-0.8,0.7-2,1.1-3.3,1.1c-2,0-3.8-0.7-5.4-2.2l1.7-2.1
			c1.4,1.2,2.6,1.8,3.8,1.8c0.5,0,0.9-0.1,1.2-0.3s0.4-0.5,0.4-0.9c0-0.4-0.2-0.7-0.5-0.9c-0.3-0.2-0.9-0.4-1.9-0.7
			c-1.5-0.3-2.5-0.8-3.2-1.4c-0.7-0.6-1-1.4-1-2.6c0-1.2,0.4-2.1,1.3-2.8s1.9-1,3.2-1c0.8,0,1.7,0.1,2.5,0.4
			c0.8,0.3,1.6,0.7,2.2,1.2l-1.4,2.1c-1.1-0.8-2.2-1.2-3.4-1.2C702,201.1,701.6,201.2,701.3,201.4z"/>
		<path class="st2" d="M715.1,201.4v10.2h-2.8v-10.2h-3.6v-2.4h9.9v2.4H715.1z"/>
		<path class="st2" d="M729.8,198.9v2.5h-6.3v2.6h5.6v2.4h-5.6v2.6h6.5v2.5h-9.3v-12.6H729.8z"/>
		<path class="st2" d="M742.7,203.1c0,2-0.8,3.3-2.4,3.9l3.2,4.5H740l-2.8-4h-1.9v4h-2.8v-12.6h4.8c2,0,3.4,0.3,4.2,1
			C742.3,200.6,742.7,201.6,742.7,203.1z M739.3,204.6c0.3-0.3,0.5-0.8,0.5-1.5c0-0.7-0.2-1.1-0.5-1.4c-0.4-0.3-1-0.4-1.9-0.4h-2.1
			v3.7h2.1C738.3,205.1,739,204.9,739.3,204.6z"/>
		<path class="st2" d="M754.6,198.9v2.5h-6.3v2.6h5.6v2.4h-5.6v2.6h6.5v2.5h-9.3v-12.6H754.6z"/>
		<path class="st2" d="M767.7,209.8c-1.3,1.2-2.8,1.9-4.7,1.9s-3.4-0.6-4.7-1.9c-1.3-1.2-1.9-2.8-1.9-4.6c0-1.8,0.6-3.4,1.9-4.6
			c1.3-1.2,2.8-1.9,4.7-1.9s3.4,0.6,4.7,1.9c1.3,1.2,1.9,2.8,1.9,4.6C769.6,207,769,208.5,767.7,209.8z M766.8,205.2
			c0-1.1-0.4-2.1-1.1-2.9s-1.6-1.2-2.7-1.2s-1.9,0.4-2.7,1.2c-0.7,0.8-1.1,1.7-1.1,2.9s0.4,2.1,1.1,2.9c0.7,0.8,1.6,1.2,2.7,1.2
			s1.9-0.4,2.7-1.2C766.4,207.2,766.8,206.3,766.8,205.2z"/>
		<path class="st2" d="M782.5,209c1.4,0,2.5-0.5,3.4-1.6l1.8,1.9c-1.4,1.6-3.1,2.4-5,2.4c-1.9,0-3.5-0.6-4.8-1.8s-1.9-2.8-1.9-4.6
			c0-1.9,0.6-3.4,1.9-4.7c1.3-1.2,2.8-1.9,4.7-1.9c2.1,0,3.8,0.8,5.2,2.4l-1.7,2c-0.9-1.1-2-1.7-3.3-1.7c-1.1,0-2,0.3-2.7,1
			s-1.1,1.6-1.1,2.8c0,1.2,0.4,2.1,1.1,2.8S781.5,209,782.5,209z"/>
		<path class="st2" d="M798.8,211.5l-1.2-2.7h-5.3l-1.2,2.7h-3l5.4-12.6h2.7l5.4,12.6H798.8z M795,202.7l-1.6,3.7h3.2L795,202.7z"/>
		<path class="st2" d="M814.5,203.6l-3.4,6.9h-1.7l-3.4-6.9v7.9h-2.8v-12.6h3.8l3.2,6.9l3.3-6.9h3.8v12.6h-2.8V203.6z"/>
		<path class="st2" d="M829.5,198.9v2.5h-6.3v2.6h5.6v2.4h-5.6v2.6h6.5v2.5h-9.3v-12.6H829.5z"/>
		<path class="st2" d="M842.4,203.1c0,2-0.8,3.3-2.4,3.9l3.2,4.5h-3.5l-2.8-4H835v4h-2.8v-12.6h4.8c2,0,3.4,0.3,4.2,1
			C842,200.6,842.4,201.6,842.4,203.1z M839,204.6c0.3-0.3,0.5-0.8,0.5-1.5c0-0.7-0.2-1.1-0.5-1.4c-0.4-0.3-1-0.4-1.9-0.4H835v3.7
			h2.1C838,205.1,838.7,204.9,839,204.6z"/>
		<path class="st2" d="M854.2,211.5l-1.2-2.7h-5.3l-1.2,2.7h-3l5.4-12.6h2.7l5.4,12.6H854.2z M850.4,202.7l-1.6,3.7h3.1L850.4,202.7
			z"/>
		<path class="st2" d="M693.1,234.9h5.1v12.6h-2.7v-10.2h-2.4V234.9z"/>
		<path class="st2" d="M711.9,245c1.4,0,2.5-0.5,3.4-1.6l1.8,1.9c-1.4,1.6-3.1,2.4-5,2.4c-1.9,0-3.5-0.6-4.8-1.8s-1.9-2.8-1.9-4.6
			c0-1.9,0.6-3.4,1.9-4.7c1.3-1.2,2.8-1.9,4.7-1.9c2.1,0,3.8,0.8,5.2,2.4l-1.7,2c-0.9-1.1-2-1.7-3.3-1.7c-1.1,0-2,0.3-2.7,1
			s-1.1,1.6-1.1,2.8c0,1.2,0.4,2.1,1.1,2.8S710.9,245,711.9,245z"/>
		<path class="st2" d="M727.1,234.9h2.8v12.6h-2.8v-5h-5v5h-2.8v-12.6h2.8v5.3h5V234.9z"/>
		<path class="st2" d="M742,247.5l-1.2-2.7h-5.3l-1.2,2.7h-3l5.4-12.6h2.7l5.4,12.6H742z M738.2,238.7l-1.6,3.7h3.1L738.2,238.7z"/>
		<path class="st2" d="M755.2,234.9h2.8v12.6h-2.8l-6-7.9v7.9h-2.8v-12.6h2.6l6.2,8.1V234.9z"/>
		<path class="st2" d="M769.9,234.9h2.8v12.6h-2.8l-6-7.9v7.9h-2.8v-12.6h2.6l6.2,8.1V234.9z"/>
		<path class="st2" d="M784.9,234.9v2.5h-6.3v2.6h5.6v2.4h-5.6v2.6h6.5v2.5h-9.3v-12.6H784.9z"/>
		<path class="st2" d="M787.6,247.5v-12.6h2.8V245h5.4v2.5H787.6z"/>
		<path class="st2" d="M802.6,247.5v-12.6h2.8V245h5.4v2.5H802.6z"/>
		<path class="st2" d="M812.8,234.9h2.8v12.6h-2.8V234.9z"/>
		<path class="st2" d="M828.3,236.6c1.2,1.1,1.8,2.6,1.8,4.6c0,2-0.6,3.5-1.8,4.6s-3,1.7-5.4,1.7h-4.3v-12.6h4.4
			C825.4,234.9,827.1,235.5,828.3,236.6z M826.3,244.1c0.7-0.6,1-1.6,1-2.8c0-1.2-0.3-2.2-1-2.9c-0.7-0.7-1.7-1-3.2-1h-1.6v7.6h1.8
			C824.6,245,825.6,244.7,826.3,244.1z"/>
		<path class="st2" d="M841.2,247.5l-1.2-2.7h-5.3l-1.2,2.7h-3l5.4-12.6h2.7l5.4,12.6H841.2z M837.4,238.7l-1.6,3.7h3.2L837.4,238.7
			z"/>
		<path class="st2" d="M855.8,239.1c0,2-0.8,3.3-2.4,3.9l3.2,4.5h-3.5l-2.8-4h-1.9v4h-2.8v-12.6h4.8c2,0,3.4,0.3,4.2,1
			C855.4,236.6,855.8,237.6,855.8,239.1z M852.4,240.6c0.3-0.3,0.5-0.8,0.5-1.5c0-0.7-0.2-1.1-0.5-1.4c-0.4-0.3-1-0.4-1.9-0.4h-2.1
			v3.7h2.1C851.4,241.1,852.1,240.9,852.4,240.6z"/>
		<path class="st2" d="M802.4,275.1c0,2-0.8,3.3-2.4,3.9l3.2,4.5h-3.5l-2.8-4H795v4h-2.8v-12.6h4.8c2,0,3.4,0.3,4.2,1
			C802,272.6,802.4,273.6,802.4,275.1z M799,276.6c0.3-0.3,0.5-0.8,0.5-1.5c0-0.7-0.2-1.1-0.5-1.4c-0.4-0.3-1-0.4-1.9-0.4H795v3.7
			h2.1C798,277.1,798.7,276.9,799,276.6z"/>
		<path class="st2" d="M814.3,283.5l-1.2-2.7h-5.3l-1.2,2.7h-3l5.4-12.6h2.7l5.4,12.6H814.3z M810.5,274.7l-1.6,3.7h3.1L810.5,274.7
			z"/>
		<path class="st2" d="M828.3,272.6c1.2,1.1,1.8,2.6,1.8,4.6c0,2-0.6,3.5-1.8,4.6s-3,1.7-5.4,1.7h-4.3v-12.6h4.4
			C825.4,270.9,827.1,271.5,828.3,272.6z M826.3,280.1c0.7-0.6,1-1.6,1-2.8c0-1.2-0.3-2.2-1-2.9c-0.7-0.7-1.7-1-3.2-1h-1.6v7.6h1.8
			C824.6,281,825.6,280.7,826.3,280.1z"/>
		<path class="st2" d="M841.2,283.5l-1.2-2.7h-5.3l-1.2,2.7h-3l5.4-12.6h2.7l5.4,12.6H841.2z M837.4,274.7l-1.6,3.7h3.1L837.4,274.7
			z"/>
		<path class="st2" d="M855.8,275.1c0,2-0.8,3.3-2.4,3.9l3.2,4.5h-3.5l-2.8-4h-1.9v4h-2.8v-12.6h4.8c2,0,3.4,0.3,4.2,1
			C855.4,272.6,855.8,273.6,855.8,275.1z M852.4,276.6c0.3-0.3,0.5-0.8,0.5-1.5c0-0.7-0.2-1.1-0.5-1.4c-0.4-0.3-1-0.4-1.9-0.4h-2.1
			v3.7h2.1C851.4,277.1,852.1,276.9,852.4,276.6z"/>
		<path class="st2" d="M714.4,306.9h2.8v12.6h-2.8l-6-7.9v7.9h-2.8v-12.6h2.6l6.2,8.1V306.9z"/>
		<path class="st2" d="M720.3,306.9h2.8v12.6h-2.8V306.9z"/>
		<path class="st2" d="M736.7,317c1.4,0,2.5-0.5,3.4-1.6l1.8,1.9c-1.4,1.6-3.1,2.4-5,2.4c-1.9,0-3.5-0.6-4.8-1.8s-1.9-2.8-1.9-4.6
			c0-1.9,0.6-3.4,1.9-4.7c1.3-1.2,2.8-1.9,4.7-1.9c2.1,0,3.8,0.8,5.2,2.4l-1.7,2c-0.9-1.1-2-1.7-3.3-1.7c-1.1,0-2,0.3-2.7,1
			s-1.1,1.6-1.1,2.8c0,1.2,0.4,2.1,1.1,2.8S735.7,317,736.7,317z"/>
		<path class="st2" d="M754.4,317.8c-1.3,1.2-2.8,1.9-4.7,1.9s-3.4-0.6-4.7-1.9c-1.3-1.2-1.9-2.8-1.9-4.6c0-1.8,0.6-3.4,1.9-4.6
			c1.3-1.2,2.8-1.9,4.7-1.9s3.4,0.6,4.7,1.9c1.3,1.2,1.9,2.8,1.9,4.6C756.3,315,755.7,316.5,754.4,317.8z M753.4,313.2
			c0-1.1-0.4-2.1-1.1-2.9s-1.6-1.2-2.7-1.2s-1.9,0.4-2.7,1.2c-0.7,0.8-1.1,1.7-1.1,2.9s0.4,2.1,1.1,2.9c0.7,0.8,1.6,1.2,2.7,1.2
			s1.9-0.4,2.7-1.2C753.1,315.2,753.4,314.3,753.4,313.2z"/>
		<path class="st2" d="M770,311.6l-3.4,6.9h-1.7l-3.4-6.9v7.9h-2.8v-12.6h3.8l3.2,6.9l3.3-6.9h3.8v12.6H770V311.6z"/>
		<path class="st2" d="M784.5,308.1c0.9,0.8,1.3,1.9,1.3,3.5c0,1.6-0.5,2.7-1.4,3.4c-0.9,0.7-2.3,1.1-4.1,1.1h-1.7v3.5h-2.8v-12.6
			h4.4C782.2,306.9,783.6,307.3,784.5,308.1z M782.5,313c0.3-0.4,0.5-0.9,0.5-1.7c0-0.7-0.2-1.2-0.7-1.5c-0.4-0.3-1.1-0.5-2-0.5
			h-1.6v4.2h1.9C781.5,313.6,782.1,313.4,782.5,313z"/>
		<path class="st2" d="M796.3,319.5l-1.2-2.7h-5.3l-1.2,2.7h-3l5.4-12.6h2.7l5.4,12.6H796.3z M792.5,310.7l-1.6,3.7h3.1L792.5,310.7
			z"/>
		<path class="st2" d="M806.5,317c1.4,0,2.5-0.5,3.4-1.6l1.8,1.9c-1.4,1.6-3.1,2.4-5,2.4c-1.9,0-3.5-0.6-4.8-1.8s-1.9-2.8-1.9-4.6
			c0-1.9,0.6-3.4,1.9-4.7c1.3-1.2,2.8-1.9,4.7-1.9c2.1,0,3.8,0.8,5.2,2.4l-1.7,2c-0.9-1.1-2-1.7-3.3-1.7c-1.1,0-2,0.3-2.7,1
			s-1.1,1.6-1.1,2.8c0,1.2,0.4,2.1,1.1,2.8S805.5,317,806.5,317z"/>
		<path class="st2" d="M819.2,309.4v10.2h-2.8v-10.2h-3.6v-2.4h9.9v2.4H819.2z"/>
		<path class="st2" d="M835,311.1c0,2-0.8,3.3-2.4,3.9l3.2,4.5h-3.5l-2.8-4h-1.9v4h-2.8v-12.6h4.8c2,0,3.4,0.3,4.2,1
			C834.6,308.6,835,309.6,835,311.1z M831.7,312.6c0.3-0.3,0.5-0.8,0.5-1.5c0-0.7-0.2-1.1-0.5-1.4c-0.4-0.3-1-0.4-1.9-0.4h-2.1v3.7
			h2.1C830.7,313.1,831.3,312.9,831.7,312.6z"/>
		<path class="st2" d="M837.9,306.9h2.8v12.6h-2.8V306.9z"/>
		<path class="st2" d="M854.4,317.8c-1.3,1.2-2.8,1.9-4.7,1.9c-1.9,0-3.4-0.6-4.7-1.9c-1.3-1.2-1.9-2.8-1.9-4.6
			c0-1.8,0.6-3.4,1.9-4.6c1.3-1.2,2.8-1.9,4.7-1.9c1.9,0,3.4,0.6,4.7,1.9c1.3,1.2,1.9,2.8,1.9,4.6
			C856.3,315,855.7,316.5,854.4,317.8z M853.5,313.2c0-1.1-0.4-2.1-1.1-2.9c-0.7-0.8-1.6-1.2-2.7-1.2c-1.1,0-1.9,0.4-2.7,1.2
			s-1.1,1.7-1.1,2.9s0.4,2.1,1.1,2.9c0.7,0.8,1.6,1.2,2.7,1.2c1,0,1.9-0.4,2.7-1.2C853.1,315.2,853.5,314.3,853.5,313.2z"/>
		<path class="st2" d="M722.9,342.9h2.8v12.6h-2.8l-6-7.9v7.9h-2.8v-12.6h2.6l6.2,8.1V342.9z"/>
		<path class="st2" d="M733.5,350.9l3.2-8h3l-5.1,12.6h-2.4l-5.1-12.6h3L733.5,350.9z"/>
		<path class="st2" d="M741.2,342.9h2.8v12.6h-2.8V342.9z"/>
		<path class="st2" d="M756.7,344.6c1.2,1.1,1.8,2.6,1.8,4.6s-0.6,3.5-1.8,4.6c-1.2,1.1-3,1.7-5.4,1.7h-4.3v-12.6h4.4
			C753.8,342.9,755.5,343.5,756.7,344.6z M754.7,352.1c0.7-0.6,1-1.6,1-2.8c0-1.2-0.3-2.2-1-2.9c-0.7-0.7-1.7-1-3.2-1h-1.6v7.6h1.8
			C753,353,754,352.7,754.7,352.1z"/>
		<path class="st2" d="M761,342.9h2.8v12.6H761V342.9z"/>
		<path class="st2" d="M775.8,355.5l-1.2-2.7h-5.3l-1.2,2.7h-3l5.4-12.6h2.7l5.4,12.6H775.8z M772,346.7l-1.6,3.7h3.1L772,346.7z"/>
		<path class="st2" d="M785.5,345.4v-2.4h6.6v8.2c0,1.5-0.4,2.6-1.2,3.4s-1.8,1.1-3,1.1c-1.5,0-2.8-0.6-4-1.7l1.5-2
			c0.8,0.8,1.5,1.2,2.4,1.2c0.4,0,0.7-0.2,1-0.5c0.3-0.3,0.4-0.8,0.4-1.4v-5.9H785.5z"/>
		<path class="st2" d="M804.1,342.9v2.5h-6.3v2.6h5.6v2.4h-5.6v2.6h6.5v2.5H795v-12.6H804.1z"/>
		<path class="st2" d="M812.1,345.4v10.2h-2.8v-10.2h-3.6v-2.4h9.9v2.4H812.1z"/>
		<path class="st2" d="M820.6,345.4c-0.3,0.2-0.4,0.5-0.4,0.9c0,0.4,0.2,0.7,0.5,0.9c0.3,0.2,1.1,0.5,2.3,0.8
			c1.2,0.3,2.1,0.7,2.8,1.3s1,1.4,1,2.6s-0.4,2-1.3,2.7c-0.8,0.7-2,1.1-3.3,1.1c-2,0-3.8-0.7-5.4-2.2l1.7-2.1
			c1.4,1.2,2.6,1.8,3.8,1.8c0.5,0,0.9-0.1,1.2-0.3s0.4-0.5,0.4-0.9s-0.2-0.7-0.5-0.9c-0.3-0.2-0.9-0.4-1.9-0.7
			c-1.5-0.3-2.5-0.8-3.2-1.4c-0.7-0.6-1-1.4-1-2.6s0.4-2.1,1.3-2.8c0.9-0.6,1.9-1,3.2-1c0.8,0,1.7,0.1,2.5,0.4
			c0.8,0.3,1.6,0.7,2.2,1.2l-1.4,2.1c-1.1-0.8-2.2-1.2-3.4-1.2C821.2,345.1,820.8,345.2,820.6,345.4z"/>
		<path class="st2" d="M839.7,353.8c-1.3,1.2-2.8,1.9-4.7,1.9c-1.9,0-3.4-0.6-4.7-1.9c-1.3-1.2-1.9-2.8-1.9-4.6
			c0-1.8,0.6-3.4,1.9-4.6c1.3-1.2,2.8-1.9,4.7-1.9c1.9,0,3.4,0.6,4.7,1.9c1.3,1.2,1.9,2.8,1.9,4.6C841.6,351,841,352.5,839.7,353.8z
			 M838.7,349.2c0-1.1-0.4-2.1-1.1-2.9c-0.7-0.8-1.6-1.2-2.7-1.2c-1.1,0-1.9,0.4-2.7,1.2s-1.1,1.7-1.1,2.9s0.4,2.1,1.1,2.9
			s1.6,1.2,2.7,1.2c1,0,1.9-0.4,2.7-1.2C838.4,351.2,838.7,350.3,838.7,349.2z"/>
		<path class="st2" d="M852.8,342.9h2.8v12.6h-2.8l-6-7.9v7.9H844v-12.6h2.6l6.2,8.1V342.9z"/>
	</g>
	<g>
		<path class="st2" d="M777.8,513.1h2.8v12.6h-2.8l-6-7.9v7.9H769v-12.6h2.6l6.2,8.1V513.1z"/>
		<path class="st2" d="M783.7,513.1h2.8v12.6h-2.8V513.1z"/>
		<path class="st2" d="M805.6,517.7l-3.4,6.9h-1.7l-3.4-6.9v7.9h-2.8v-12.6h3.8l3.2,6.9l3.3-6.9h3.8v12.6h-2.8V517.7z"/>
		<path class="st2" d="M817,525.7h-2.8v-5l-4.4-7.6h3l2.7,4.7l2.7-4.7h3l-4.4,7.6V525.7z"/>
		<path class="st2" d="M832.9,517.3c0,2-0.8,3.3-2.4,3.9l3.2,4.5h-3.5l-2.8-4h-1.9v4h-2.8v-12.6h4.8c2,0,3.4,0.3,4.2,1
			C832.5,514.7,832.9,515.8,832.9,517.3z M829.5,518.8c0.3-0.3,0.5-0.8,0.5-1.5c0-0.7-0.2-1.1-0.5-1.4c-0.4-0.3-1-0.4-1.9-0.4h-2.1
			v3.7h2.1C828.5,519.2,829.1,519.1,829.5,518.8z"/>
		<path class="st2" d="M835.8,513.1h2.8v12.6h-2.8V513.1z"/>
		<path class="st2" d="M852.2,523.9c-1.3,1.2-2.8,1.9-4.7,1.9s-3.4-0.6-4.7-1.9c-1.3-1.2-1.9-2.8-1.9-4.6s0.6-3.4,1.9-4.6
			c1.3-1.2,2.8-1.9,4.7-1.9s3.4,0.6,4.7,1.9c1.3,1.2,1.9,2.8,1.9,4.6S853.5,522.7,852.2,523.9z M851.3,519.3c0-1.1-0.4-2.1-1.1-2.9
			s-1.6-1.2-2.7-1.2s-1.9,0.4-2.7,1.2c-0.7,0.8-1.1,1.7-1.1,2.9s0.4,2.1,1.1,2.9c0.7,0.8,1.6,1.2,2.7,1.2s1.9-0.4,2.7-1.2
			S851.3,520.4,851.3,519.3z"/>
		<path class="st2" d="M720.8,549.1h2.8v12.6h-2.8l-6-7.9v7.9H712v-12.6h2.6l6.2,8.1V549.1z"/>
		<path class="st2" d="M731.3,557.1l3.2-8h3l-5.1,12.6h-2.4l-5.1-12.6h3L731.3,557.1z"/>
		<path class="st2" d="M739,549.1h2.8v12.6H739V549.1z"/>
		<path class="st2" d="M754.6,550.7c1.2,1.1,1.8,2.6,1.8,4.6c0,2-0.6,3.5-1.8,4.6c-1.2,1.1-3,1.7-5.4,1.7H745v-12.6h4.4
			C751.6,549.1,753.4,549.6,754.6,550.7z M752.5,558.2c0.7-0.6,1-1.6,1-2.8c0-1.2-0.3-2.2-1-2.9c-0.7-0.7-1.7-1-3.2-1h-1.6v7.6h1.8
			C750.8,559.2,751.8,558.9,752.5,558.2z"/>
		<path class="st2" d="M758.8,549.1h2.8v12.6h-2.8V549.1z"/>
		<path class="st2" d="M773.7,561.7l-1.2-2.7h-5.3l-1.2,2.7h-3l5.4-12.6h2.7l5.4,12.6H773.7z M769.9,552.8l-1.6,3.7h3.2L769.9,552.8
			z"/>
		<path class="st2" d="M783.3,551.5v-2.4h6.6v8.2c0,1.5-0.4,2.6-1.2,3.4s-1.8,1.1-3,1.1c-1.5,0-2.8-0.6-4-1.7l1.5-2
			c0.8,0.8,1.5,1.2,2.4,1.2c0.4,0,0.7-0.2,1-0.5c0.3-0.3,0.4-0.8,0.4-1.4v-5.9H783.3z"/>
		<path class="st2" d="M801.9,549.1v2.5h-6.3v2.6h5.6v2.4h-5.6v2.6h6.5v2.5h-9.3v-12.6H801.9z"/>
		<path class="st2" d="M810,551.5v10.2h-2.8v-10.2h-3.6v-2.4h9.9v2.4H810z"/>
		<path class="st2" d="M818.4,551.6c-0.3,0.2-0.4,0.5-0.4,0.9c0,0.4,0.2,0.7,0.5,0.9s1.1,0.5,2.3,0.8c1.2,0.3,2.1,0.7,2.8,1.3
			s1,1.4,1,2.6s-0.4,2-1.3,2.7c-0.8,0.7-2,1.1-3.3,1.1c-2,0-3.8-0.7-5.4-2.2l1.7-2.1c1.4,1.2,2.6,1.8,3.8,1.8c0.5,0,0.9-0.1,1.2-0.3
			c0.3-0.2,0.4-0.5,0.4-0.9s-0.2-0.7-0.5-0.9c-0.3-0.2-0.9-0.4-1.9-0.7c-1.5-0.3-2.5-0.8-3.2-1.4c-0.7-0.6-1-1.4-1-2.6
			c0-1.2,0.4-2.1,1.3-2.8c0.9-0.6,1.9-1,3.2-1c0.8,0,1.7,0.1,2.5,0.4c0.8,0.3,1.6,0.7,2.2,1.2l-1.4,2.1c-1.1-0.8-2.2-1.2-3.4-1.2
			C819.1,551.3,818.7,551.4,818.4,551.6z"/>
		<path class="st2" d="M837.5,559.9c-1.3,1.2-2.8,1.9-4.7,1.9c-1.9,0-3.4-0.6-4.7-1.9c-1.3-1.2-1.9-2.8-1.9-4.6s0.6-3.4,1.9-4.6
			c1.3-1.2,2.8-1.9,4.7-1.9c1.9,0,3.4,0.6,4.7,1.9c1.3,1.2,1.9,2.8,1.9,4.6S838.8,558.7,837.5,559.9z M836.6,555.3
			c0-1.1-0.4-2.1-1.1-2.9c-0.7-0.8-1.6-1.2-2.7-1.2c-1.1,0-1.9,0.4-2.7,1.2s-1.1,1.7-1.1,2.9s0.4,2.1,1.1,2.9s1.6,1.2,2.7,1.2
			c1,0,1.9-0.4,2.7-1.2C836.2,557.4,836.6,556.4,836.6,555.3z"/>
		<path class="st2" d="M850.6,549.1h2.8v12.6h-2.8l-6-7.9v7.9h-2.8v-12.6h2.6l6.2,8.1V549.1z"/>
		<path class="st2" d="M668.5,585.1h5.1v12.6h-2.7v-10.2h-2.4V585.1z"/>
		<path class="st2" d="M681.5,590c0.3-0.5,0.5-0.9,0.5-1.3s-0.1-0.8-0.4-1.1s-0.6-0.4-1.1-0.4c-0.8,0-1.5,0.6-2.3,1.7l-2.3-1.3
			c0.6-0.9,1.2-1.6,1.9-2.1c0.7-0.5,1.6-0.7,2.7-0.7s2,0.3,2.9,1c0.8,0.7,1.2,1.6,1.2,2.8c0,0.6-0.2,1.3-0.5,1.9s-0.9,1.4-1.8,2.3
			l-2.3,2.4h5v2.5h-8.9v-2.1l3.7-3.8C680.7,591,681.2,590.4,681.5,590z"/>
		<path class="st2" d="M688.8,585.8c0.8-0.7,1.9-1,3.1-1s2.3,0.3,3.1,1s1.2,1.5,1.2,2.4s-0.4,1.8-1.1,2.5c1,0.8,1.6,1.9,1.6,3.2
			c0,1.1-0.4,2-1.3,2.8c-0.9,0.8-2,1.1-3.5,1.1c-1.4,0-2.6-0.4-3.5-1.1c-0.9-0.8-1.3-1.7-1.3-2.8c0-1.3,0.5-2.4,1.6-3.2
			c-0.8-0.7-1.1-1.5-1.1-2.5S687.9,586.4,688.8,585.8z M690.5,595c0.4,0.3,0.9,0.4,1.4,0.4s0.9-0.1,1.4-0.4c0.4-0.3,0.6-0.7,0.6-1.2
			s-0.2-1-0.6-1.2c-0.4-0.3-0.9-0.4-1.4-0.4c-0.5,0-1,0.1-1.4,0.4c-0.4,0.3-0.6,0.7-0.6,1.2S690.1,594.8,690.5,595z M690.7,589.6
			c0.3,0.3,0.7,0.4,1.2,0.4s0.9-0.1,1.2-0.4c0.3-0.3,0.5-0.6,0.5-1.1c0-0.4-0.2-0.8-0.5-1.1c-0.3-0.3-0.7-0.4-1.2-0.4
			s-0.9,0.1-1.2,0.4c-0.3,0.3-0.5,0.6-0.5,1.1C690.2,588.9,690.3,589.3,690.7,589.6z"/>
		<path class="st2" d="M709.7,595.2c1.4,0,2.5-0.5,3.4-1.6l1.8,1.9c-1.4,1.6-3.1,2.4-5,2.4c-1.9,0-3.5-0.6-4.8-1.8
			c-1.3-1.2-1.9-2.8-1.9-4.6s0.6-3.4,1.9-4.7c1.3-1.2,2.8-1.9,4.7-1.9c2.1,0,3.8,0.8,5.2,2.4l-1.7,2c-0.9-1.1-2-1.7-3.3-1.7
			c-1.1,0-2,0.3-2.7,1c-0.8,0.7-1.1,1.6-1.1,2.8s0.4,2.1,1.1,2.8S708.7,595.2,709.7,595.2z"/>
		<path class="st2" d="M725,585.1h2.8v12.6H725v-5h-5v5h-2.8v-12.6h2.8v5.3h5V585.1z"/>
		<path class="st2" d="M739.8,597.7l-1.2-2.7h-5.3l-1.2,2.7h-3l5.4-12.6h2.7l5.4,12.6H739.8z M736,588.8l-1.6,3.7h3.1L736,588.8z"/>
		<path class="st2" d="M753.1,585.1h2.8v12.6h-2.8l-6-7.9v7.9h-2.8v-12.6h2.6l6.2,8.1V585.1z"/>
		<path class="st2" d="M767.8,585.1h2.8v12.6h-2.8l-6-7.9v7.9H759v-12.6h2.6l6.2,8.1V585.1z"/>
		<path class="st2" d="M782.8,585.1v2.5h-6.3v2.6h5.6v2.4h-5.6v2.6h6.5v2.5h-9.3v-12.6H782.8z"/>
		<path class="st2" d="M785.5,597.7v-12.6h2.8v10.1h5.4v2.5H785.5z"/>
		<path class="st2" d="M800.4,597.7v-12.6h2.8v10.1h5.4v2.5H800.4z"/>
		<path class="st2" d="M810.7,585.1h2.8v12.6h-2.8V585.1z"/>
		<path class="st2" d="M826.2,586.7c1.2,1.1,1.8,2.6,1.8,4.6c0,2-0.6,3.5-1.8,4.6c-1.2,1.1-3,1.7-5.4,1.7h-4.3v-12.6h4.4
			C823.2,585.1,825,585.6,826.2,586.7z M824.1,594.2c0.7-0.6,1-1.6,1-2.8c0-1.2-0.3-2.2-1-2.9c-0.7-0.7-1.7-1-3.2-1h-1.6v7.6h1.8
			C822.4,595.2,823.4,594.9,824.1,594.2z"/>
		<path class="st2" d="M839,597.7l-1.2-2.7h-5.3l-1.2,2.7h-3l5.4-12.6h2.7l5.4,12.6H839z M835.2,588.8l-1.6,3.7h3.2L835.2,588.8z"/>
		<path class="st2" d="M853.7,589.3c0,2-0.8,3.3-2.4,3.9l3.2,4.5H851l-2.8-4h-1.9v4h-2.8v-12.6h4.8c2,0,3.4,0.3,4.2,1
			C853.2,586.7,853.7,587.8,853.7,589.3z M850.3,590.8c0.3-0.3,0.5-0.8,0.5-1.5c0-0.7-0.2-1.1-0.5-1.4c-0.4-0.3-1-0.4-1.9-0.4h-2.1
			v3.7h2.1C849.3,591.2,849.9,591.1,850.3,590.8z"/>
		<path class="st2" d="M755.8,627.3h2.8v4.5c-1.2,1.4-3,2.1-5.2,2.1c-1.8,0-3.4-0.6-4.7-1.8c-1.3-1.2-1.9-2.8-1.9-4.6
			s0.6-3.4,1.9-4.7s2.8-1.9,4.6-1.9s3.4,0.6,4.7,1.8l-1.5,2.1c-0.6-0.5-1.1-0.8-1.6-1c-0.5-0.2-1-0.3-1.5-0.3c-1.1,0-2,0.4-2.7,1.1
			c-0.7,0.7-1.1,1.7-1.1,2.9c0,1.2,0.4,2.1,1.1,2.9s1.5,1.1,2.5,1.1c1,0,1.8-0.2,2.4-0.6V627.3z"/>
		<path class="st2" d="M769.8,622.2c0.9,0.8,1.3,1.9,1.3,3.5s-0.5,2.7-1.4,3.4c-0.9,0.7-2.3,1.1-4.1,1.1h-1.7v3.5h-2.8v-12.6h4.4
			C767.5,621.1,768.9,621.5,769.8,622.2z M767.7,627.2c0.3-0.4,0.5-0.9,0.5-1.7s-0.2-1.2-0.7-1.5c-0.4-0.3-1.1-0.5-2-0.5h-1.6v4.2
			h1.9C766.8,627.7,767.4,627.5,767.7,627.2z"/>
		<path class="st2" d="M776.3,623.6c-0.3,0.2-0.4,0.5-0.4,0.9c0,0.4,0.2,0.7,0.5,0.9s1.1,0.5,2.3,0.8s2.1,0.7,2.8,1.3
			c0.7,0.6,1,1.4,1,2.6s-0.4,2-1.3,2.7s-2,1.1-3.3,1.1c-2,0-3.8-0.7-5.4-2.2l1.7-2.1c1.4,1.2,2.6,1.8,3.8,1.8c0.5,0,0.9-0.1,1.2-0.3
			c0.3-0.2,0.4-0.5,0.4-0.9s-0.2-0.7-0.5-0.9c-0.3-0.2-0.9-0.4-1.9-0.7c-1.5-0.3-2.5-0.8-3.2-1.4c-0.7-0.6-1-1.4-1-2.6
			c0-1.2,0.4-2.1,1.3-2.8c0.9-0.6,1.9-1,3.2-1c0.8,0,1.7,0.1,2.5,0.4s1.6,0.7,2.2,1.2l-1.4,2.1c-1.1-0.8-2.2-1.2-3.4-1.2
			C776.9,623.3,776.5,623.4,776.3,623.6z"/>
		<path class="st2" d="M796,619.2h2.6l-7.6,16.5h-2.5L796,619.2z"/>
		<path class="st2" d="M813.5,627.3h2.8v4.5c-1.2,1.4-3,2.1-5.2,2.1c-1.8,0-3.4-0.6-4.7-1.8c-1.3-1.2-1.9-2.8-1.9-4.6
			s0.6-3.4,1.9-4.7c1.3-1.2,2.8-1.9,4.6-1.9c1.8,0,3.4,0.6,4.7,1.8l-1.5,2.1c-0.6-0.5-1.1-0.8-1.6-1c-0.5-0.2-1-0.3-1.5-0.3
			c-1.1,0-2,0.4-2.7,1.1c-0.7,0.7-1.1,1.7-1.1,2.9c0,1.2,0.4,2.1,1.1,2.9c0.7,0.7,1.5,1.1,2.5,1.1c1,0,1.8-0.2,2.4-0.6V627.3z"/>
		<path class="st2" d="M827.7,621.1h2.8v12.6h-2.8l-6-7.9v7.9h-2.8v-12.6h2.6l6.2,8.1V621.1z"/>
		<path class="st2" d="M836.5,623.6c-0.3,0.2-0.4,0.5-0.4,0.9c0,0.4,0.2,0.7,0.5,0.9s1.1,0.5,2.3,0.8s2.1,0.7,2.8,1.3
			c0.7,0.6,1,1.4,1,2.6s-0.4,2-1.3,2.7s-2,1.1-3.3,1.1c-2,0-3.8-0.7-5.4-2.2l1.7-2.1c1.4,1.2,2.6,1.8,3.8,1.8c0.5,0,0.9-0.1,1.2-0.3
			c0.3-0.2,0.4-0.5,0.4-0.9s-0.2-0.7-0.5-0.9c-0.3-0.2-0.9-0.4-1.9-0.7c-1.5-0.3-2.5-0.8-3.2-1.4c-0.7-0.6-1-1.4-1-2.6
			c0-1.2,0.4-2.1,1.3-2.8c0.9-0.6,1.9-1,3.2-1c0.8,0,1.7,0.1,2.5,0.4s1.6,0.7,2.2,1.2l-1.4,2.1c-1.1-0.8-2.2-1.2-3.4-1.2
			C837.1,623.3,836.8,623.4,836.5,623.6z"/>
		<path class="st2" d="M848,623.6c-0.3,0.2-0.4,0.5-0.4,0.9c0,0.4,0.2,0.7,0.5,0.9s1.1,0.5,2.3,0.8c1.2,0.3,2.1,0.7,2.8,1.3
			s1,1.4,1,2.6s-0.4,2-1.3,2.7c-0.8,0.7-2,1.1-3.3,1.1c-2,0-3.8-0.7-5.4-2.2l1.7-2.1c1.4,1.2,2.6,1.8,3.8,1.8c0.5,0,0.9-0.1,1.2-0.3
			c0.3-0.2,0.4-0.5,0.4-0.9s-0.2-0.7-0.5-0.9c-0.3-0.2-0.9-0.4-1.9-0.7c-1.5-0.3-2.5-0.8-3.2-1.4c-0.7-0.6-1-1.4-1-2.6
			c0-1.2,0.4-2.1,1.3-2.8c0.9-0.6,1.9-1,3.2-1c0.8,0,1.7,0.1,2.5,0.4c0.8,0.3,1.6,0.7,2.2,1.2l-1.4,2.1c-1.1-0.8-2.2-1.2-3.4-1.2
			C848.6,623.3,848.3,623.4,848,623.6z"/>
		<path class="st2" d="M699.2,659.6c-0.3,0.2-0.4,0.5-0.4,0.9c0,0.4,0.2,0.7,0.5,0.9s1.1,0.5,2.3,0.8s2.1,0.7,2.8,1.3
			c0.7,0.6,1,1.4,1,2.6s-0.4,2-1.3,2.7s-2,1.1-3.3,1.1c-2,0-3.8-0.7-5.4-2.2l1.7-2.1c1.4,1.2,2.6,1.8,3.8,1.8c0.5,0,0.9-0.1,1.2-0.3
			c0.3-0.2,0.4-0.5,0.4-0.9s-0.2-0.7-0.5-0.9c-0.3-0.2-0.9-0.4-1.9-0.7c-1.5-0.3-2.5-0.8-3.2-1.4c-0.7-0.6-1-1.4-1-2.6
			c0-1.2,0.4-2.1,1.3-2.8c0.9-0.6,1.9-1,3.2-1c0.8,0,1.7,0.1,2.5,0.4s1.6,0.7,2.2,1.2l-1.4,2.1c-1.1-0.8-2.2-1.2-3.4-1.2
			C699.8,659.3,699.4,659.4,699.2,659.6z"/>
		<path class="st2" d="M712.9,659.5v10.2h-2.8v-10.2h-3.6v-2.4h9.9v2.4H712.9z"/>
		<path class="st2" d="M727.6,657.1v2.5h-6.3v2.6h5.6v2.4h-5.6v2.6h6.5v2.5h-9.3v-12.6H727.6z"/>
		<path class="st2" d="M740.5,661.3c0,2-0.8,3.3-2.4,3.9l3.2,4.5h-3.5l-2.8-4h-1.9v4h-2.8v-12.6h4.8c2,0,3.4,0.3,4.2,1
			C740.1,658.7,740.5,659.8,740.5,661.3z M737.1,662.8c0.3-0.3,0.5-0.8,0.5-1.5c0-0.7-0.2-1.1-0.5-1.4c-0.4-0.3-1-0.4-1.9-0.4h-2.1
			v3.7h2.1C736.1,663.2,736.8,663.1,737.1,662.8z"/>
		<path class="st2" d="M752.5,657.1v2.5h-6.3v2.6h5.6v2.4h-5.6v2.6h6.5v2.5h-9.3v-12.6H752.5z"/>
		<path class="st2" d="M765.6,667.9c-1.3,1.2-2.8,1.9-4.7,1.9c-1.9,0-3.4-0.6-4.7-1.9c-1.3-1.2-1.9-2.8-1.9-4.6s0.6-3.4,1.9-4.6
			c1.3-1.2,2.8-1.9,4.7-1.9c1.9,0,3.4,0.6,4.7,1.9c1.3,1.2,1.9,2.8,1.9,4.6S766.8,666.7,765.6,667.9z M764.6,663.3
			c0-1.1-0.4-2.1-1.1-2.9c-0.7-0.8-1.6-1.2-2.7-1.2c-1.1,0-1.9,0.4-2.7,1.2s-1.1,1.7-1.1,2.9s0.4,2.1,1.1,2.9s1.6,1.2,2.7,1.2
			c1,0,1.9-0.4,2.7-1.2C764.2,665.4,764.6,664.4,764.6,663.3z"/>
		<path class="st2" d="M780.4,667.2c1.4,0,2.5-0.5,3.4-1.6l1.8,1.9c-1.4,1.6-3.1,2.4-5,2.4c-1.9,0-3.5-0.6-4.8-1.8
			c-1.3-1.2-1.9-2.8-1.9-4.6s0.6-3.4,1.9-4.7c1.3-1.2,2.8-1.9,4.7-1.9c2.1,0,3.8,0.8,5.2,2.4l-1.7,2c-0.9-1.1-2-1.7-3.3-1.7
			c-1.1,0-2,0.3-2.7,1c-0.8,0.7-1.1,1.6-1.1,2.8s0.4,2.1,1.1,2.8S779.4,667.2,780.4,667.2z"/>
		<path class="st2" d="M796.6,669.7l-1.2-2.7h-5.3l-1.2,2.7h-3l5.4-12.6h2.7l5.4,12.6H796.6z M792.8,660.8l-1.6,3.7h3.1L792.8,660.8
			z"/>
		<path class="st2" d="M812.4,661.7l-3.4,6.9h-1.7l-3.4-6.9v7.9h-2.8v-12.6h3.8l3.2,6.9l3.3-6.9h3.8v12.6h-2.8V661.7z"/>
		<path class="st2" d="M827.3,657.1v2.5h-6.3v2.6h5.6v2.4h-5.6v2.6h6.5v2.5h-9.3v-12.6H827.3z"/>
		<path class="st2" d="M840.2,661.3c0,2-0.8,3.3-2.4,3.9l3.2,4.5h-3.5l-2.8-4h-1.9v4H830v-12.6h4.8c2,0,3.4,0.3,4.2,1
			C839.8,658.7,840.2,659.8,840.2,661.3z M836.9,662.8c0.3-0.3,0.5-0.8,0.5-1.5c0-0.7-0.2-1.1-0.5-1.4c-0.4-0.3-1-0.4-1.9-0.4h-2.1
			v3.7h2.1C835.9,663.2,836.5,663.1,836.9,662.8z"/>
		<path class="st2" d="M852.1,669.7l-1.2-2.7h-5.3l-1.2,2.7h-3l5.4-12.6h2.7l5.4,12.6H852.1z M848.3,660.8l-1.6,3.7h3.1L848.3,660.8
			z"/>
		<path class="st2" d="M691,693.1h5.1v12.6h-2.7v-10.2H691V693.1z"/>
		<path class="st2" d="M709.7,703.2c1.4,0,2.5-0.5,3.4-1.6l1.8,1.9c-1.4,1.6-3.1,2.4-5,2.4c-1.9,0-3.5-0.6-4.8-1.8
			c-1.3-1.2-1.9-2.8-1.9-4.6s0.6-3.4,1.9-4.7c1.3-1.2,2.8-1.9,4.7-1.9c2.1,0,3.8,0.8,5.2,2.4l-1.7,2c-0.9-1.1-2-1.7-3.3-1.7
			c-1.1,0-2,0.3-2.7,1c-0.8,0.7-1.1,1.6-1.1,2.8s0.4,2.1,1.1,2.8S708.7,703.2,709.7,703.2z"/>
		<path class="st2" d="M725,693.1h2.8v12.6H725v-5h-5v5h-2.8v-12.6h2.8v5.3h5V693.1z"/>
		<path class="st2" d="M739.8,705.7l-1.2-2.7h-5.3l-1.2,2.7h-3l5.4-12.6h2.7l5.4,12.6H739.8z M736,696.8l-1.6,3.7h3.2L736,696.8z"/>
		<path class="st2" d="M753.1,693.1h2.8v12.6h-2.8l-6-7.9v7.9h-2.8v-12.6h2.6l6.2,8.1V693.1z"/>
		<path class="st2" d="M767.8,693.1h2.8v12.6h-2.8l-6-7.9v7.9H759v-12.6h2.6l6.2,8.1V693.1z"/>
		<path class="st2" d="M782.8,693.1v2.5h-6.3v2.6h5.6v2.4h-5.6v2.6h6.5v2.5h-9.3v-12.6H782.8z"/>
		<path class="st2" d="M785.5,705.7v-12.6h2.8v10.1h5.4v2.5H785.5z"/>
		<path class="st2" d="M800.4,705.7v-12.6h2.8v10.1h5.4v2.5H800.4z"/>
		<path class="st2" d="M810.7,693.1h2.8v12.6h-2.8V693.1z"/>
		<path class="st2" d="M826.2,694.7c1.2,1.1,1.8,2.6,1.8,4.6c0,2-0.6,3.5-1.8,4.6c-1.2,1.1-3,1.7-5.4,1.7h-4.3v-12.6h4.4
			C823.2,693.1,825,693.6,826.2,694.7z M824.1,702.2c0.7-0.6,1-1.6,1-2.8c0-1.2-0.3-2.2-1-2.9c-0.7-0.7-1.7-1-3.2-1h-1.6v7.6h1.8
			C822.4,703.2,823.4,702.9,824.1,702.2z"/>
		<path class="st2" d="M839,705.7l-1.2-2.7h-5.3l-1.2,2.7h-3l5.4-12.6h2.7l5.4,12.6H839z M835.2,696.8l-1.6,3.7h3.2L835.2,696.8z"/>
		<path class="st2" d="M853.7,697.3c0,2-0.8,3.3-2.4,3.9l3.2,4.5H851l-2.8-4h-1.9v4h-2.8v-12.6h4.8c2,0,3.4,0.3,4.2,1
			C853.2,694.7,853.7,695.8,853.7,697.3z M850.3,698.8c0.3-0.3,0.5-0.8,0.5-1.5c0-0.7-0.2-1.1-0.5-1.4c-0.4-0.3-1-0.4-1.9-0.4h-2.1
			v3.7h2.1C849.3,699.2,849.9,699.1,850.3,698.8z"/>
	</g>
</g>
<g id="szenergy_vonal">
	<path class="st3" d="M283.1,556.3c3.3,0.8,4.4,1.6,7.4,2.6c12,5,21,13,31,21c1,1,2,3,3,4c14,11,26,23,38,35c26,4,50,10,75,18
		c8,3,15,6,23,11c15,10,21,26,27,41c4,10,8,21,5,32c-3,8-9,14-16,18c-33,16-67,27-103,31c-26,3-52,5-78,2c-4,4-6,8-11,10
		c-21,7-44-7-51.3-26.9"/>
	<path class="st3" d="M235.5,761.2c-18-9.4-37-17.4-56-26.4c-2-1-3,0-5-1c-4-2-8-3-12-6c-17,3-34-5-47-17c-10-16-23-30-36-44
		c-8-8-23-14-22-26c1-5,8-5,12-6c14-5,28-8,42-10c30-26,58-55,96-69c10-4,20-4,30-5c11,0,23,1,34,2.6"/>
	<path class="st4" d="M359.5,731.1c2.6,1.4,10.6,5.4-1.2,5.7c-14.7,0.3-47.3,5.5-51.4,6.7c-11,3.2-9,9.1-19.4,15.3
		c-0.8,0.5-1.7,0.5-2.5,0.2c-11.6-4.1-95.1-34.2-102-40.5c-8-7.3-18.8-15.7-32.3-28.3c-7.3-6.8-82.7-41.7-88.7-42.7
		c-3.6-0.6-1.1-4.6,1.5-7.7c0.9-1.1,2.4-1.3,3.6-0.8c0.1,0,0.2,0.1,0.4,0.1c2.6,0.7,62.2,22.3,74.4,32.3
		c2.3,1.9,28.1,20.4,35.9,29.3c10.7,12.2,83.3,39.4,99.9,42.9c1,0.2,2-0.1,2.7-0.7c2.5-2.3,9-7.8,14.5-8.6c7-1,60-5.4,63.9-3.6
		C358.9,730.8,359.2,731,359.5,731.1z"/>
	<path class="st3" d="M280.6,696c0,0,24.1,3.4,33.6,11.1s10.3,9.4,17,12.1c0,0,78.1,0.9,79.8,1.9S293,691.2,280.6,696z"/>
	<path class="st4" d="M320.6,708.3c0,0-1.5-3.1,4.5-5l46.4,10.5c0,0,2.8,1.8-0.1,2.6s-36.4-0.1-38.4-0.8S320.6,709.3,320.6,708.3"/>
	<path class="st3" d="M484.7,707.3c2.3-0.4,4.8-0.6,7.1-0.1"/>
	<path class="st3" d="M489.2,695.5c-46.7,6.3-84.7,37.3-124.7,60.3c-11,0-23-3-34-1c-4,0-8,4-9,8.7c18.4,2.5,0.5-0.8,0,0
		c7,0.3,15,2.3,22,3.3c19,2,37-1,53-12c23-15,43-29,66.7-40"/>
	<path class="st3" d="M616.8,763.8"/>
	<path class="st3" d="M270,631.3c0,0-9.2-1.6-8.5-12.3c0.9-13.7,6-45,15-50.3s19.1-4.3,22.8-2c21,13.3,56.1,49,57.5,50.8
		c5,6.4,18,17.8,18,17.8s6,7.3-8.3,11.8S275,632.7,270,631.3z"/>
	<path class="st3" d="M254.3,573.6c0,0,4.6-7.9-3.2-8.4c-3.8-0.2-7.7-1.2-7.7-1.2s-29.3-4.6-34.1-3.1c-6.3,2-8.5,4-8.5,4
		s-14.7,18-15.2,42.5c0,0-0.2,8,4,9s46.7,9.5,50.7,9.5s5.5-2.5,6.2-5.3c0.7-2.8,3.6-44.1,7.7-46.6"/>
	<path class="st3" d="M270,765.8c0,0-90.3-33.5-98.5-38.8s-26.5-18.5-35.3-20.5"/>
	<path class="st3" d="M394.8,684c0,0-150.8-41.1-174.3-47c0,0-47-14.3-93-14"/>
	<path class="st3" d="M425.5,662.7c-17.8-12.4-34-25.9-54-33.5"/>
	<path class="st3" d="M237.2,644.3c0,0-10.6,3.8-24.9,11.5c-0.2,0.1-0.4,0.2-0.6,0.4c-1.8,1.2-9.7,7.6-11.6,24.2
		c-2.4,21.5,2.3,54,4.3,56.8"/>
	<path class="st3" d="M173.2,629.5c0,0-22.9,4-30.5,21.6c-4.4,10.1-6,37.8,1.2,55.3"/>
	<path class="st3" d="M503.8,729c0,0-1.7,3.3-7.5,3.2s-10.1-2.8-10.1-2.8s-1.6-5.4,6.7-5.5S504.5,727.4,503.8,729z"/>
	<path class="st3" d="M503.7,728.3v4.3l-3.6,5.3c0,0-3.3,2.1-7,1.4s-5.6-1.1-6.5-2.7L486,729"/>
	<path class="st3" d="M502,735.7c0,0,2.3,2.4,0.9,4.3s-2.4,2.3-5.5,2.7s-9.3-0.6-11.8-1.6s-3.4-4.4-2.9-5.8"/>
	<path class="st3" d="M503.2,739.5l-2,17.4c-1.3,1.8-2.4,2.3-5.5,2.7s-9.3-0.6-11.8-1.6l-7.6-3.5l2.4-20.2l3.8,0.7"/>
	<path class="st3" d="M461.6,707.1c-2.7-2.7-18.8-21.5-22.3-12"/>
	<path class="st3" d="M476.1,749.6c-0.6,0.3-2.6,0.3-2.6-0.8c1-11,5-24-4.1-33.7"/>
	<path class="st3" d="M474.9,702c-3.1-3.3-17.9-20.9-21.6-11.3"/>
	<path class="st3" d="M488.5,723.6c-1.3-6.5-2-9-6.6-13.8"/>
	<path class="st3" d="M483.8,703.5c-0.2-0.4-0.8-0.6-1.2-0.4c-3.1,1.4-16.5,7.1-16.9,7.4c-0.4,0.3-2.6,1-2.1,2.8
		c0.4,1.4,0.6,2.6,1.6,2.4c1-0.1,16.2-6.5,16.7-7c0.5-0.5,2.3-1.8,2.3-3.3C484.1,704.3,484.1,704.1,483.8,703.5z"/>
	<path class="st3" d="M466.6,712.8c0.1-0.5,0.1-0.4,0.1-0.4"/>
	<path class="st3" d="M481,706.2c0.1-0.5,0-0.4,0-0.4"/>
	<path class="st3" d="M415.2,666.6c0.1,1.9-0.4,3.2,4.4,7.2s10,4.4,13.1,4.5c3.1,0.1,6.5,0,8.5-1.3s1.4-4.9,0.1-6.3
		c-1.3-1.4-4-4.5-6.5-5.6c-2.2-1-5.4-2.4-11.6-2.4C417,662.7,415.2,666.6,415.2,666.6"/>
	<path class="st3" d="M423.3,676.3c0,0,1.8,2.4,7,2.2"/>
	<path class="st3" d="M463.4,710"/>
	<polyline class="st3" points="286.6,558.6 276.7,564.9 266.4,559.4 270.2,556.2 	"/>
	<path class="st3" d="M270.4,548.5c0,0-0.6,1.3,0.8,2.9c1.3,1.6,5,2,5,2s4,0.4,6.6-1.8c2.6-2.2-1.7-5.4-1.7-5.4s-3.8-1.3-6.8-0.7
		C271.2,546.2,270.4,548.5,270.4,548.5z"/>
	<path class="st3" d="M270.8,551.2l0.2,5.2c0,0,1.3,2.2,5.7,2.1s5-1.3,5.7-1.7v-4.6"/>
	<path class="st3" d="M270.2,558.8c0,0,1.1,1.8,4.3,2.4s4.4,0.3,5.2,0s3.3-1.1,3.8-2.4"/>
</g>
<g id="leaf_line">
	<ellipse class="st3" cx="50.3" cy="284.2" rx="11.9" ry="29.6"/>
	<ellipse class="st3" cx="50.9" cy="283.6" rx="15.8" ry="40.7"/>
	<path class="st3" d="M182.4,116c-30.9,0.9-61.9,2.9-91.9,12.9c-8,3-12,10-17,16c-10,13-17,27-26,41c-5,6-11,11-13,18
		c-7,17-8,36-7,54c1,7,1,15,6.9,20.7"/>
	<path class="st3" d="M51.9,324.4c7.6,0.5,14.6,1.5,22.6,0.5c9-2,13-13,14.9-21.1c3.9,1.1-1.2,4.7,0,0c40.1,10.1,79.1,22.1,119,32
		c-3.5-9.9,0,0,0,0c-8.8-22-8.8-48,4.2-69c3-5,8-9,14-8c36,6,38,48,44,79c1,3,3,6,4,9c0,1,0,2,0,3c1,2,2,4,3,4c33,6,65,4,97,5
		c3,0,5-2,8-3c43-3,86-6,129-10c10-1,15-12,19-21c2-7,5-15,2-23c-4-9-1-19-3-28c-4-12-12-21-22.4-28.5c0.6,5.3-0.5,12.1-5.3,15.3
		c-7.4-12.8-17.4-22.8-26.4-34.8c-2-3-3-6-5-8c-5-4-8-8-13-12c-15-10-28-19-42-31c-16-12-31-23-48-33c-11-6-21-11-33-15
		c-8-3-16-4-24-5c-38-3-75-6-112.2-6"/>
	<path class="st3" d="M280.4,365.8"/>
	<path class="st3" d="M277.1,355.5"/>
	<ellipse class="st3" cx="235.1" cy="330.5" rx="20.4" ry="38.6"/>
	<ellipse class="st3" cx="235.8" cy="329.3" rx="26.1" ry="52.7"/>
	<path class="st3" d="M235.8,381.9h35.5c0,0,13.3-5.6,16.9-25.5"/>
	<path class="st3" d="M89.4,303.8l-9.1-2.2l-8.9-15.9c0,0-7.7-51.4-23.5-54.2c-15.8-2.8-18.3,29.3-12.8,40.6"/>
	<path class="st3" d="M253.7,206.6c0,0,0.5,8.7,0.9,12.4c0,0,44.9,31.1,52.7,32.3c7.7,1.2,37.7,11.7,63.2,15
		c0,0-33.1-50.3-79.8-57.1C290.7,209.2,269.2,204.4,253.7,206.6z"/>
	<path class="st3" d="M278.7,235.4c0,0,1.2-15.7,11-26"/>
	<path class="st3" d="M452,202c0,0,22.4,0.2,27.2,4.2c0,0,19.2,10.5,28.3,38.5"/>
	<path class="st3" d="M465.2,212.4c0,0,2-6.3,7.2-8.3"/>
	<path class="st3" d="M354.2,246.2l53.7,6c0,0-1.7-6,5.7-6.1c7.4-0.1,51-1.7,51-1.7s4.7,0.4,7.3,5.1l15.5-8.3"/>
	<path class="st3" d="M407.9,252.2l21.9,22.9c0,0,2.5,3.1,7.9,3.7s30.3,0.2,33.7-2.1c3.4-2.3,3.7-4.5,3.7-4.5s0.8-20.7-3.2-22.6"/>
	<path class="st3" d="M161.3,127.2c-12.9-1.5-37.6-2.1-73.3,7.8c0,0-7.7,8.4-7,30.7c0.7,22.2,139,46.3,144.7,45.2
		c5.1-1.1-20.7-62.3-45.7-78.2"/>
	<path class="st3" d="M495,347.7c0,0-3.9,14.9-29.3,14.7c-25.5-0.2-27.4-4-33.9-9.1"/>
	<path class="st3" d="M198.9,132c0,0,33.7,57.3,55.2,64.1s157.1,18.5,181.9,2.3c0,0,3.7-1.8-18.8-18.9
		c-24.1-18.4-38.9-29.3-70.2-45.7c-0.6-0.3-1.2-0.5-1.9-0.6C332.7,132.4,210.7,123.7,198.9,132z"/>
	<g>
		
			<ellipse transform="matrix(2.203603e-02 -0.9998 0.9998 2.203603e-02 98.7215 703.0649)" class="st3" cx="408.7" cy="301.1" rx="4" ry="11.4"/>
		<path class="st3" d="M399.1,307.4c-3.4,0.5-3.1,3.1-3.1,3.1c0,2.2,5,4.1,11.3,4.3c6.3,0.1,11.4-1.6,11.5-3.8c0,0,1.1-2.2-2.5-3.6
			l3.5-5.1"/>
		<path class="st3" d="M419.1,309.6l-0.1,20.2c0,2.2-5.2,3.9-11.5,3.8c-6.3-0.1-9.9-3-11.8-4.2l-4.6-2.9l0.1-15.8l7.7-3.4l-1.8-2.3
			l0.1-4.7"/>
	</g>
	<polygon class="st3" points="492.7,313.8 507.6,312.4 506.7,299.6 492.2,300.4 	"/>
	<path class="st3" d="M161.7,134.2l10.8,4.8c0,0,9.3-4.2,8.5-12l-12.3-6.5C168.7,120.5,158,124.2,161.7,134.2z"/>
	<path class="st3" d="M161.7,134.2c0,0,9.8-5,7-13.7"/>
	<path class="st3" d="M165.8,135.8c0,0,9-5.2,6.5-13.2"/>
	<path class="st3" d="M281,111.2c0,0-1.5,1.8-0.2,3l17.9-0.1c0,0,2.5-1.4,0.2-3.3L281,111.2z"/>
	<path class="st3" d="M283.5,112.7c0.2,0,0,0.2,0,0.2"/>
	<line class="st3" x1="295.7" y1="112.5" x2="295.7" y2="112.8"/>
	<path class="st3" d="M197.5,111.2c27,1.6,55,1.6,81.9,1.8"/>
	<path class="st3" d="M182.5,107.5c-23-1.6-47-0.6-70-1.6c-3,0-5,2-8,3.3c4.8,0.1,3-1.5,0,0c26,0.7,52,0.7,78.2,1.7"/>
	<path class="st3" d="M300.4,113.5c6.1,0.1,12.3,0.3,18.4,0.4c3.2,0.1,4,0,4.7-3.6c-8.7-0.2-17.4-0.4-26.2-0.5
		c-32.8-1-65.8-2-99.2-2"/>
	<path class="st3" d="M103.8,109.5c0,0,5.7,2.3,5.3,4.5c-0.3,2.2-0.7,9.5-0.7,9.5l11.2-2l-9,7.2l5.5-0.2l9.2-8.2l-8.5-2.5
		c0,0-5-6.2-1.8-7.8"/>
	<path class="st3" d="M183,126l165.8-1.8l0.8,0.3c0,0,1.8,6.8,5.4,7.7l10.1-6.3c0,0-0.7-8.2-8.3-8"/>
	<polyline class="st3" points="356.2,118.5 353.1,121.2 350.8,123.5 	"/>
	<path class="st3" d="M397.7,146.2"/>
	<polyline class="st3" points="182.1,117.5 183.5,113.4 183.5,110 183.5,109.7 180.9,107 181.9,105.9 198.3,105.9 196.7,109.8 
		196.6,113.2 199.1,118.2 182.1,118.4 	"/>
	<path class="st3" d="M196.7,109.8c0,0-12.5,0.7-13.3,0.2"/>
	<path class="st3" d="M196.5,113.5L196.5,113.5c0,0-12.1,1-13-0.1"/>
	<path class="st3" d="M150.6,100l-0.6,2c-23,2.3-25.2-1.6-25.2-1.6v-1C133.7,97.5,150.6,100,150.6,100l-0.3-2.3
		c-12.9-3.6-16.3-3.9-25.3,0.3"/>
	<polyline class="st3" points="133.1,103.3 131.9,105.6 140.3,106.1 139.1,102.9 	"/>
	<path class="st3" d="M336,118.3l17,0.5l-2.5-4.5c0,0-9.9,0.5-11.5-0.1l0.2-3.3c0,0,8.8,0.8,10.4,0.3l0.7-3.7c0,0-9.5-0.6-11.5-0.1
		l0.5,3.6"/>
	<line class="st3" x1="349.6" y1="111.1" x2="350.5" y2="114.3"/>
	<line class="st3" x1="339" y1="114.2" x2="336.9" y2="118.2"/>
	<path class="st3" d="M362.2,126.9c0,0-1.2-4.8-6.8-6.5"/>
	<path class="st3" d="M316.3,114.7c0,0-8.3,2-9.5,6.7l-5-0.5l3.7-7.3"/>
	<polyline class="st3" points="348.6,119.1 177.4,120.8 181.7,126.2 	"/>
</g>
<g id="szenergy-">
	<path class="st5" d="M833.7,824.1"/>
	<path class="st6" d="M725.5,628.3H487.2c-6.8,0-12.3,5.5-12.3,12.3v16c0,6.8-5.5,12.3-12.3,12.3H448"/>
	<circle class="st1" cx="680" cy="699" r="6.3"/>
	<circle class="st7" cx="276.7" cy="558.2" r="16.4"/>
	<ellipse class="st7" cx="492.4" cy="742.5" rx="22.2" ry="22.2"/>
	<circle class="st7" cx="471.2" cy="707.7" r="15.7"/>
	<circle class="st7" cx="429.9" cy="670.9" r="18"/>
	<path class="st6" d="M647.2,592.5H359.4c-5.5,0-9.9-4.4-9.9-9.9v-17.3c0-4.5-3.6-8.1-8.1-8.1h-48.2"/>
	<path class="st6" d="M676.5,663.8H514.8c-5.5,0-10,4.5-10,10V697c0,5.2-4.3,9.5-9.5,9.5h-8.5"/>
	<path class="st6" d="M514.6,742.5h12.9c5.2,0,9.4-4.2,9.4-9.4v-22.1c0-6.7,5.4-12.1,12.1-12.1h124.8"/>
</g>
<g id="szenergy_pont">
	<circle class="st1" cx="653.5" cy="592.5" r="6.3"/>
	<circle class="st1" cx="731.8" cy="628.3" r="6.3"/>
	<circle class="st1" cx="682.8" cy="663.8" r="6.3"/>
</g>
<g id="leaf_vonal">
	<path class="st6" d="M728.7,97.4H455.4c-6-1-10.9-5.9-10.9-11.9V58.4c0-6-4.9-10.9-10.9-10.9H147.4c-6,0-10.9,4.9-10.9,10.9V83"/>
	<circle class="st7" cx="137.4" cy="99.5" r="16.4"/>
	<circle class="st7" cx="289.4" cy="112.3" r="12.5"/>
	<circle class="st7" cx="170.2" cy="131.1" r="12.4"/>
	<circle class="st7" cx="357.5" cy="126.1" r="10.9"/>
	<circle class="st7" cx="344" cy="111.4" r="12.2"/>
	<circle class="st7" cx="189.7" cy="111.9" r="11.3"/>
	<circle class="st7" cx="408.6" cy="315.2" r="22.1"/>
	<circle class="st7" cx="499.9" cy="306.9" r="10.9"/>
	<path class="st6" d="M658.3,133.6H436.4c-5.5,0-9.9-4.4-9.9-9.9V77.4c0-5.5-4.4-9.9-9.9-9.9h-62.8c-5.5,0-9.9,4.4-9.9,9.9v22.9"/>
	<path class="st6" d="M343.8,67.5H198.4c-5.5,0-9.9,4.4-9.9,9.9v23.1"/>
	<path class="st6" d="M660.3,169.3H371c-6.1,0-11-4.9-11-11v-3.5v-14.3"/>
	<path class="st6" d="M360,154.8"/>
	<path class="st6" d="M671.6,241.9l-247,0.1c-9.4,0-17,7.7-16.7,17.1l0.7,33.9"/>
	<path class="st6" d="M772.7,277.2H506.6c-5.6,0-10.1,4.5-10.1,10.1v8.8"/>
	<path class="st6" d="M673.6,205.4h-181c-3.8,0-6.9-3.1-6.9-6.9v-4.9c0-3.8-3.1-6.9-6.9-6.9H295.6c-3.8,0-6.9-3.1-6.9-6.9v-55.1"/>
	<path class="st6" d="M170.2,143.5l-0.6,16.9c-0.1,4.5,3.5,8.3,8,8.3h188.1"/>
</g>
</svg>
